G75*
%MOIN*%
%OFA0B0*%
%FSLAX25Y25*%
%IPPOS*%
%LPD*%
%AMOC8*
5,1,8,0,0,1.08239X$1,22.5*
%
%ADD10C,0.00600*%
%ADD11C,0.01000*%
%ADD12C,0.00800*%
%ADD13C,0.00100*%
%ADD14R,0.03400X0.02400*%
D10*
X0011016Y0013516D02*
X0013516Y0011016D01*
X0018516Y0011016D01*
X0021016Y0013516D01*
X0023516Y0011016D01*
X0028516Y0011016D01*
X0031016Y0013516D01*
X0031016Y0018516D01*
X0028516Y0021016D01*
X0023516Y0021016D01*
X0021016Y0018516D01*
X0021016Y0013516D01*
X0021016Y0018516D02*
X0018516Y0021016D01*
X0013516Y0021016D01*
X0011016Y0018516D01*
X0011016Y0013516D01*
X0031016Y0013516D02*
X0033516Y0011016D01*
X0038516Y0011016D01*
X0041016Y0013516D01*
X0043516Y0011016D01*
X0048516Y0011016D01*
X0051016Y0013516D01*
X0051016Y0018516D01*
X0048516Y0021016D01*
X0043516Y0021016D01*
X0041016Y0018516D01*
X0041016Y0013516D01*
X0041016Y0018516D02*
X0038516Y0021016D01*
X0033516Y0021016D01*
X0031016Y0018516D01*
X0033516Y0046016D02*
X0031016Y0048516D01*
X0028516Y0046016D01*
X0023516Y0046016D01*
X0021016Y0048516D01*
X0018516Y0046016D01*
X0013516Y0046016D01*
X0011016Y0048516D01*
X0011016Y0053516D01*
X0013516Y0056016D01*
X0018516Y0056016D01*
X0021016Y0053516D01*
X0023516Y0056016D01*
X0028516Y0056016D01*
X0031016Y0053516D01*
X0033516Y0056016D01*
X0038516Y0056016D01*
X0041016Y0053516D01*
X0041016Y0048516D01*
X0038516Y0046016D01*
X0033516Y0046016D01*
X0031016Y0048516D02*
X0031016Y0053516D01*
X0021016Y0053516D02*
X0021016Y0048516D01*
X0071516Y0046016D02*
X0071516Y0026016D01*
X0071518Y0025956D01*
X0071523Y0025895D01*
X0071532Y0025836D01*
X0071545Y0025777D01*
X0071561Y0025718D01*
X0071581Y0025661D01*
X0071604Y0025606D01*
X0071631Y0025551D01*
X0071660Y0025499D01*
X0071693Y0025448D01*
X0071729Y0025399D01*
X0071767Y0025353D01*
X0071809Y0025309D01*
X0071853Y0025267D01*
X0071899Y0025229D01*
X0071948Y0025193D01*
X0071999Y0025160D01*
X0072051Y0025131D01*
X0072106Y0025104D01*
X0072161Y0025081D01*
X0072218Y0025061D01*
X0072277Y0025045D01*
X0072336Y0025032D01*
X0072395Y0025023D01*
X0072456Y0025018D01*
X0072516Y0025016D01*
X0089516Y0025016D01*
X0089576Y0025018D01*
X0089637Y0025023D01*
X0089696Y0025032D01*
X0089755Y0025045D01*
X0089814Y0025061D01*
X0089871Y0025081D01*
X0089926Y0025104D01*
X0089981Y0025131D01*
X0090033Y0025160D01*
X0090084Y0025193D01*
X0090133Y0025229D01*
X0090179Y0025267D01*
X0090223Y0025309D01*
X0090265Y0025353D01*
X0090303Y0025399D01*
X0090339Y0025448D01*
X0090372Y0025499D01*
X0090401Y0025551D01*
X0090428Y0025606D01*
X0090451Y0025661D01*
X0090471Y0025718D01*
X0090487Y0025777D01*
X0090500Y0025836D01*
X0090509Y0025895D01*
X0090514Y0025956D01*
X0090516Y0026016D01*
X0090516Y0046016D01*
X0090514Y0046076D01*
X0090509Y0046137D01*
X0090500Y0046196D01*
X0090487Y0046255D01*
X0090471Y0046314D01*
X0090451Y0046371D01*
X0090428Y0046426D01*
X0090401Y0046481D01*
X0090372Y0046533D01*
X0090339Y0046584D01*
X0090303Y0046633D01*
X0090265Y0046679D01*
X0090223Y0046723D01*
X0090179Y0046765D01*
X0090133Y0046803D01*
X0090084Y0046839D01*
X0090033Y0046872D01*
X0089981Y0046901D01*
X0089926Y0046928D01*
X0089871Y0046951D01*
X0089814Y0046971D01*
X0089755Y0046987D01*
X0089696Y0047000D01*
X0089637Y0047009D01*
X0089576Y0047014D01*
X0089516Y0047016D01*
X0072516Y0047016D01*
X0072456Y0047014D01*
X0072395Y0047009D01*
X0072336Y0047000D01*
X0072277Y0046987D01*
X0072218Y0046971D01*
X0072161Y0046951D01*
X0072106Y0046928D01*
X0072051Y0046901D01*
X0071999Y0046872D01*
X0071948Y0046839D01*
X0071899Y0046803D01*
X0071853Y0046765D01*
X0071809Y0046723D01*
X0071767Y0046679D01*
X0071729Y0046633D01*
X0071693Y0046584D01*
X0071660Y0046533D01*
X0071631Y0046481D01*
X0071604Y0046426D01*
X0071581Y0046371D01*
X0071561Y0046314D01*
X0071545Y0046255D01*
X0071532Y0046196D01*
X0071523Y0046137D01*
X0071518Y0046076D01*
X0071516Y0046016D01*
X0079516Y0036016D02*
X0080016Y0036016D01*
X0082016Y0036016D02*
X0082516Y0036016D01*
X0085016Y0060016D02*
X0087516Y0060016D01*
X0088016Y0060516D01*
X0114016Y0060516D01*
X0114516Y0060016D01*
X0117016Y0060016D01*
X0117076Y0060018D01*
X0117137Y0060023D01*
X0117196Y0060032D01*
X0117255Y0060045D01*
X0117314Y0060061D01*
X0117371Y0060081D01*
X0117426Y0060104D01*
X0117481Y0060131D01*
X0117533Y0060160D01*
X0117584Y0060193D01*
X0117633Y0060229D01*
X0117679Y0060267D01*
X0117723Y0060309D01*
X0117765Y0060353D01*
X0117803Y0060399D01*
X0117839Y0060448D01*
X0117872Y0060499D01*
X0117901Y0060551D01*
X0117928Y0060606D01*
X0117951Y0060661D01*
X0117971Y0060718D01*
X0117987Y0060777D01*
X0118000Y0060836D01*
X0118009Y0060895D01*
X0118014Y0060956D01*
X0118016Y0061016D01*
X0118016Y0071016D01*
X0118014Y0071076D01*
X0118009Y0071137D01*
X0118000Y0071196D01*
X0117987Y0071255D01*
X0117971Y0071314D01*
X0117951Y0071371D01*
X0117928Y0071426D01*
X0117901Y0071481D01*
X0117872Y0071533D01*
X0117839Y0071584D01*
X0117803Y0071633D01*
X0117765Y0071679D01*
X0117723Y0071723D01*
X0117679Y0071765D01*
X0117633Y0071803D01*
X0117584Y0071839D01*
X0117533Y0071872D01*
X0117481Y0071901D01*
X0117426Y0071928D01*
X0117371Y0071951D01*
X0117314Y0071971D01*
X0117255Y0071987D01*
X0117196Y0072000D01*
X0117137Y0072009D01*
X0117076Y0072014D01*
X0117016Y0072016D01*
X0114516Y0072016D01*
X0114016Y0071516D01*
X0088016Y0071516D01*
X0087516Y0072016D01*
X0085016Y0072016D01*
X0084956Y0072014D01*
X0084895Y0072009D01*
X0084836Y0072000D01*
X0084777Y0071987D01*
X0084718Y0071971D01*
X0084661Y0071951D01*
X0084606Y0071928D01*
X0084551Y0071901D01*
X0084499Y0071872D01*
X0084448Y0071839D01*
X0084399Y0071803D01*
X0084353Y0071765D01*
X0084309Y0071723D01*
X0084267Y0071679D01*
X0084229Y0071633D01*
X0084193Y0071584D01*
X0084160Y0071533D01*
X0084131Y0071481D01*
X0084104Y0071426D01*
X0084081Y0071371D01*
X0084061Y0071314D01*
X0084045Y0071255D01*
X0084032Y0071196D01*
X0084023Y0071137D01*
X0084018Y0071076D01*
X0084016Y0071016D01*
X0084016Y0061016D01*
X0084018Y0060956D01*
X0084023Y0060895D01*
X0084032Y0060836D01*
X0084045Y0060777D01*
X0084061Y0060718D01*
X0084081Y0060661D01*
X0084104Y0060606D01*
X0084131Y0060551D01*
X0084160Y0060499D01*
X0084193Y0060448D01*
X0084229Y0060399D01*
X0084267Y0060353D01*
X0084309Y0060309D01*
X0084353Y0060267D01*
X0084399Y0060229D01*
X0084448Y0060193D01*
X0084499Y0060160D01*
X0084551Y0060131D01*
X0084606Y0060104D01*
X0084661Y0060081D01*
X0084718Y0060061D01*
X0084777Y0060045D01*
X0084836Y0060032D01*
X0084895Y0060023D01*
X0084956Y0060018D01*
X0085016Y0060016D01*
X0085016Y0080016D02*
X0087516Y0080016D01*
X0088016Y0080516D01*
X0114016Y0080516D01*
X0114516Y0080016D01*
X0117016Y0080016D01*
X0117076Y0080018D01*
X0117137Y0080023D01*
X0117196Y0080032D01*
X0117255Y0080045D01*
X0117314Y0080061D01*
X0117371Y0080081D01*
X0117426Y0080104D01*
X0117481Y0080131D01*
X0117533Y0080160D01*
X0117584Y0080193D01*
X0117633Y0080229D01*
X0117679Y0080267D01*
X0117723Y0080309D01*
X0117765Y0080353D01*
X0117803Y0080399D01*
X0117839Y0080448D01*
X0117872Y0080499D01*
X0117901Y0080551D01*
X0117928Y0080606D01*
X0117951Y0080661D01*
X0117971Y0080718D01*
X0117987Y0080777D01*
X0118000Y0080836D01*
X0118009Y0080895D01*
X0118014Y0080956D01*
X0118016Y0081016D01*
X0118016Y0091016D01*
X0118014Y0091076D01*
X0118009Y0091137D01*
X0118000Y0091196D01*
X0117987Y0091255D01*
X0117971Y0091314D01*
X0117951Y0091371D01*
X0117928Y0091426D01*
X0117901Y0091481D01*
X0117872Y0091533D01*
X0117839Y0091584D01*
X0117803Y0091633D01*
X0117765Y0091679D01*
X0117723Y0091723D01*
X0117679Y0091765D01*
X0117633Y0091803D01*
X0117584Y0091839D01*
X0117533Y0091872D01*
X0117481Y0091901D01*
X0117426Y0091928D01*
X0117371Y0091951D01*
X0117314Y0091971D01*
X0117255Y0091987D01*
X0117196Y0092000D01*
X0117137Y0092009D01*
X0117076Y0092014D01*
X0117016Y0092016D01*
X0114516Y0092016D01*
X0114016Y0091516D01*
X0088016Y0091516D01*
X0087516Y0092016D01*
X0085016Y0092016D01*
X0084956Y0092014D01*
X0084895Y0092009D01*
X0084836Y0092000D01*
X0084777Y0091987D01*
X0084718Y0091971D01*
X0084661Y0091951D01*
X0084606Y0091928D01*
X0084551Y0091901D01*
X0084499Y0091872D01*
X0084448Y0091839D01*
X0084399Y0091803D01*
X0084353Y0091765D01*
X0084309Y0091723D01*
X0084267Y0091679D01*
X0084229Y0091633D01*
X0084193Y0091584D01*
X0084160Y0091533D01*
X0084131Y0091481D01*
X0084104Y0091426D01*
X0084081Y0091371D01*
X0084061Y0091314D01*
X0084045Y0091255D01*
X0084032Y0091196D01*
X0084023Y0091137D01*
X0084018Y0091076D01*
X0084016Y0091016D01*
X0084016Y0081016D01*
X0084018Y0080956D01*
X0084023Y0080895D01*
X0084032Y0080836D01*
X0084045Y0080777D01*
X0084061Y0080718D01*
X0084081Y0080661D01*
X0084104Y0080606D01*
X0084131Y0080551D01*
X0084160Y0080499D01*
X0084193Y0080448D01*
X0084229Y0080399D01*
X0084267Y0080353D01*
X0084309Y0080309D01*
X0084353Y0080267D01*
X0084399Y0080229D01*
X0084448Y0080193D01*
X0084499Y0080160D01*
X0084551Y0080131D01*
X0084606Y0080104D01*
X0084661Y0080081D01*
X0084718Y0080061D01*
X0084777Y0080045D01*
X0084836Y0080032D01*
X0084895Y0080023D01*
X0084956Y0080018D01*
X0085016Y0080016D01*
X0085016Y0100016D02*
X0087516Y0100016D01*
X0088016Y0100516D01*
X0114016Y0100516D01*
X0114516Y0100016D01*
X0117016Y0100016D01*
X0117076Y0100018D01*
X0117137Y0100023D01*
X0117196Y0100032D01*
X0117255Y0100045D01*
X0117314Y0100061D01*
X0117371Y0100081D01*
X0117426Y0100104D01*
X0117481Y0100131D01*
X0117533Y0100160D01*
X0117584Y0100193D01*
X0117633Y0100229D01*
X0117679Y0100267D01*
X0117723Y0100309D01*
X0117765Y0100353D01*
X0117803Y0100399D01*
X0117839Y0100448D01*
X0117872Y0100499D01*
X0117901Y0100551D01*
X0117928Y0100606D01*
X0117951Y0100661D01*
X0117971Y0100718D01*
X0117987Y0100777D01*
X0118000Y0100836D01*
X0118009Y0100895D01*
X0118014Y0100956D01*
X0118016Y0101016D01*
X0118016Y0111016D01*
X0118014Y0111076D01*
X0118009Y0111137D01*
X0118000Y0111196D01*
X0117987Y0111255D01*
X0117971Y0111314D01*
X0117951Y0111371D01*
X0117928Y0111426D01*
X0117901Y0111481D01*
X0117872Y0111533D01*
X0117839Y0111584D01*
X0117803Y0111633D01*
X0117765Y0111679D01*
X0117723Y0111723D01*
X0117679Y0111765D01*
X0117633Y0111803D01*
X0117584Y0111839D01*
X0117533Y0111872D01*
X0117481Y0111901D01*
X0117426Y0111928D01*
X0117371Y0111951D01*
X0117314Y0111971D01*
X0117255Y0111987D01*
X0117196Y0112000D01*
X0117137Y0112009D01*
X0117076Y0112014D01*
X0117016Y0112016D01*
X0114516Y0112016D01*
X0114016Y0111516D01*
X0088016Y0111516D01*
X0087516Y0112016D01*
X0085016Y0112016D01*
X0084956Y0112014D01*
X0084895Y0112009D01*
X0084836Y0112000D01*
X0084777Y0111987D01*
X0084718Y0111971D01*
X0084661Y0111951D01*
X0084606Y0111928D01*
X0084551Y0111901D01*
X0084499Y0111872D01*
X0084448Y0111839D01*
X0084399Y0111803D01*
X0084353Y0111765D01*
X0084309Y0111723D01*
X0084267Y0111679D01*
X0084229Y0111633D01*
X0084193Y0111584D01*
X0084160Y0111533D01*
X0084131Y0111481D01*
X0084104Y0111426D01*
X0084081Y0111371D01*
X0084061Y0111314D01*
X0084045Y0111255D01*
X0084032Y0111196D01*
X0084023Y0111137D01*
X0084018Y0111076D01*
X0084016Y0111016D01*
X0084016Y0101016D01*
X0084018Y0100956D01*
X0084023Y0100895D01*
X0084032Y0100836D01*
X0084045Y0100777D01*
X0084061Y0100718D01*
X0084081Y0100661D01*
X0084104Y0100606D01*
X0084131Y0100551D01*
X0084160Y0100499D01*
X0084193Y0100448D01*
X0084229Y0100399D01*
X0084267Y0100353D01*
X0084309Y0100309D01*
X0084353Y0100267D01*
X0084399Y0100229D01*
X0084448Y0100193D01*
X0084499Y0100160D01*
X0084551Y0100131D01*
X0084606Y0100104D01*
X0084661Y0100081D01*
X0084718Y0100061D01*
X0084777Y0100045D01*
X0084836Y0100032D01*
X0084895Y0100023D01*
X0084956Y0100018D01*
X0085016Y0100016D01*
X0091016Y0131016D02*
X0091019Y0131261D01*
X0091028Y0131507D01*
X0091043Y0131752D01*
X0091064Y0131996D01*
X0091091Y0132240D01*
X0091124Y0132483D01*
X0091163Y0132726D01*
X0091208Y0132967D01*
X0091259Y0133207D01*
X0091316Y0133446D01*
X0091378Y0133683D01*
X0091447Y0133919D01*
X0091521Y0134153D01*
X0091601Y0134385D01*
X0091686Y0134615D01*
X0091777Y0134843D01*
X0091874Y0135068D01*
X0091976Y0135292D01*
X0092084Y0135512D01*
X0092197Y0135730D01*
X0092315Y0135945D01*
X0092439Y0136157D01*
X0092567Y0136366D01*
X0092701Y0136572D01*
X0092840Y0136774D01*
X0092984Y0136973D01*
X0093133Y0137168D01*
X0093286Y0137360D01*
X0093444Y0137548D01*
X0093606Y0137732D01*
X0093774Y0137911D01*
X0093945Y0138087D01*
X0094121Y0138258D01*
X0094300Y0138426D01*
X0094484Y0138588D01*
X0094672Y0138746D01*
X0094864Y0138899D01*
X0095059Y0139048D01*
X0095258Y0139192D01*
X0095460Y0139331D01*
X0095666Y0139465D01*
X0095875Y0139593D01*
X0096087Y0139717D01*
X0096302Y0139835D01*
X0096520Y0139948D01*
X0096740Y0140056D01*
X0096964Y0140158D01*
X0097189Y0140255D01*
X0097417Y0140346D01*
X0097647Y0140431D01*
X0097879Y0140511D01*
X0098113Y0140585D01*
X0098349Y0140654D01*
X0098586Y0140716D01*
X0098825Y0140773D01*
X0099065Y0140824D01*
X0099306Y0140869D01*
X0099549Y0140908D01*
X0099792Y0140941D01*
X0100036Y0140968D01*
X0100280Y0140989D01*
X0100525Y0141004D01*
X0100771Y0141013D01*
X0101016Y0141016D01*
X0101261Y0141013D01*
X0101507Y0141004D01*
X0101752Y0140989D01*
X0101996Y0140968D01*
X0102240Y0140941D01*
X0102483Y0140908D01*
X0102726Y0140869D01*
X0102967Y0140824D01*
X0103207Y0140773D01*
X0103446Y0140716D01*
X0103683Y0140654D01*
X0103919Y0140585D01*
X0104153Y0140511D01*
X0104385Y0140431D01*
X0104615Y0140346D01*
X0104843Y0140255D01*
X0105068Y0140158D01*
X0105292Y0140056D01*
X0105512Y0139948D01*
X0105730Y0139835D01*
X0105945Y0139717D01*
X0106157Y0139593D01*
X0106366Y0139465D01*
X0106572Y0139331D01*
X0106774Y0139192D01*
X0106973Y0139048D01*
X0107168Y0138899D01*
X0107360Y0138746D01*
X0107548Y0138588D01*
X0107732Y0138426D01*
X0107911Y0138258D01*
X0108087Y0138087D01*
X0108258Y0137911D01*
X0108426Y0137732D01*
X0108588Y0137548D01*
X0108746Y0137360D01*
X0108899Y0137168D01*
X0109048Y0136973D01*
X0109192Y0136774D01*
X0109331Y0136572D01*
X0109465Y0136366D01*
X0109593Y0136157D01*
X0109717Y0135945D01*
X0109835Y0135730D01*
X0109948Y0135512D01*
X0110056Y0135292D01*
X0110158Y0135068D01*
X0110255Y0134843D01*
X0110346Y0134615D01*
X0110431Y0134385D01*
X0110511Y0134153D01*
X0110585Y0133919D01*
X0110654Y0133683D01*
X0110716Y0133446D01*
X0110773Y0133207D01*
X0110824Y0132967D01*
X0110869Y0132726D01*
X0110908Y0132483D01*
X0110941Y0132240D01*
X0110968Y0131996D01*
X0110989Y0131752D01*
X0111004Y0131507D01*
X0111013Y0131261D01*
X0111016Y0131016D01*
X0111013Y0130771D01*
X0111004Y0130525D01*
X0110989Y0130280D01*
X0110968Y0130036D01*
X0110941Y0129792D01*
X0110908Y0129549D01*
X0110869Y0129306D01*
X0110824Y0129065D01*
X0110773Y0128825D01*
X0110716Y0128586D01*
X0110654Y0128349D01*
X0110585Y0128113D01*
X0110511Y0127879D01*
X0110431Y0127647D01*
X0110346Y0127417D01*
X0110255Y0127189D01*
X0110158Y0126964D01*
X0110056Y0126740D01*
X0109948Y0126520D01*
X0109835Y0126302D01*
X0109717Y0126087D01*
X0109593Y0125875D01*
X0109465Y0125666D01*
X0109331Y0125460D01*
X0109192Y0125258D01*
X0109048Y0125059D01*
X0108899Y0124864D01*
X0108746Y0124672D01*
X0108588Y0124484D01*
X0108426Y0124300D01*
X0108258Y0124121D01*
X0108087Y0123945D01*
X0107911Y0123774D01*
X0107732Y0123606D01*
X0107548Y0123444D01*
X0107360Y0123286D01*
X0107168Y0123133D01*
X0106973Y0122984D01*
X0106774Y0122840D01*
X0106572Y0122701D01*
X0106366Y0122567D01*
X0106157Y0122439D01*
X0105945Y0122315D01*
X0105730Y0122197D01*
X0105512Y0122084D01*
X0105292Y0121976D01*
X0105068Y0121874D01*
X0104843Y0121777D01*
X0104615Y0121686D01*
X0104385Y0121601D01*
X0104153Y0121521D01*
X0103919Y0121447D01*
X0103683Y0121378D01*
X0103446Y0121316D01*
X0103207Y0121259D01*
X0102967Y0121208D01*
X0102726Y0121163D01*
X0102483Y0121124D01*
X0102240Y0121091D01*
X0101996Y0121064D01*
X0101752Y0121043D01*
X0101507Y0121028D01*
X0101261Y0121019D01*
X0101016Y0121016D01*
X0100771Y0121019D01*
X0100525Y0121028D01*
X0100280Y0121043D01*
X0100036Y0121064D01*
X0099792Y0121091D01*
X0099549Y0121124D01*
X0099306Y0121163D01*
X0099065Y0121208D01*
X0098825Y0121259D01*
X0098586Y0121316D01*
X0098349Y0121378D01*
X0098113Y0121447D01*
X0097879Y0121521D01*
X0097647Y0121601D01*
X0097417Y0121686D01*
X0097189Y0121777D01*
X0096964Y0121874D01*
X0096740Y0121976D01*
X0096520Y0122084D01*
X0096302Y0122197D01*
X0096087Y0122315D01*
X0095875Y0122439D01*
X0095666Y0122567D01*
X0095460Y0122701D01*
X0095258Y0122840D01*
X0095059Y0122984D01*
X0094864Y0123133D01*
X0094672Y0123286D01*
X0094484Y0123444D01*
X0094300Y0123606D01*
X0094121Y0123774D01*
X0093945Y0123945D01*
X0093774Y0124121D01*
X0093606Y0124300D01*
X0093444Y0124484D01*
X0093286Y0124672D01*
X0093133Y0124864D01*
X0092984Y0125059D01*
X0092840Y0125258D01*
X0092701Y0125460D01*
X0092567Y0125666D01*
X0092439Y0125875D01*
X0092315Y0126087D01*
X0092197Y0126302D01*
X0092084Y0126520D01*
X0091976Y0126740D01*
X0091874Y0126964D01*
X0091777Y0127189D01*
X0091686Y0127417D01*
X0091601Y0127647D01*
X0091521Y0127879D01*
X0091447Y0128113D01*
X0091378Y0128349D01*
X0091316Y0128586D01*
X0091259Y0128825D01*
X0091208Y0129065D01*
X0091163Y0129306D01*
X0091124Y0129549D01*
X0091091Y0129792D01*
X0091064Y0130036D01*
X0091043Y0130280D01*
X0091028Y0130525D01*
X0091019Y0130771D01*
X0091016Y0131016D01*
X0087516Y0145016D02*
X0085016Y0145016D01*
X0084956Y0145018D01*
X0084895Y0145023D01*
X0084836Y0145032D01*
X0084777Y0145045D01*
X0084718Y0145061D01*
X0084661Y0145081D01*
X0084606Y0145104D01*
X0084551Y0145131D01*
X0084499Y0145160D01*
X0084448Y0145193D01*
X0084399Y0145229D01*
X0084353Y0145267D01*
X0084309Y0145309D01*
X0084267Y0145353D01*
X0084229Y0145399D01*
X0084193Y0145448D01*
X0084160Y0145499D01*
X0084131Y0145551D01*
X0084104Y0145606D01*
X0084081Y0145661D01*
X0084061Y0145718D01*
X0084045Y0145777D01*
X0084032Y0145836D01*
X0084023Y0145895D01*
X0084018Y0145956D01*
X0084016Y0146016D01*
X0084016Y0156016D01*
X0084018Y0156076D01*
X0084023Y0156137D01*
X0084032Y0156196D01*
X0084045Y0156255D01*
X0084061Y0156314D01*
X0084081Y0156371D01*
X0084104Y0156426D01*
X0084131Y0156481D01*
X0084160Y0156533D01*
X0084193Y0156584D01*
X0084229Y0156633D01*
X0084267Y0156679D01*
X0084309Y0156723D01*
X0084353Y0156765D01*
X0084399Y0156803D01*
X0084448Y0156839D01*
X0084499Y0156872D01*
X0084551Y0156901D01*
X0084606Y0156928D01*
X0084661Y0156951D01*
X0084718Y0156971D01*
X0084777Y0156987D01*
X0084836Y0157000D01*
X0084895Y0157009D01*
X0084956Y0157014D01*
X0085016Y0157016D01*
X0087516Y0157016D01*
X0088016Y0156516D01*
X0114016Y0156516D01*
X0114516Y0157016D01*
X0117016Y0157016D01*
X0117076Y0157014D01*
X0117137Y0157009D01*
X0117196Y0157000D01*
X0117255Y0156987D01*
X0117314Y0156971D01*
X0117371Y0156951D01*
X0117426Y0156928D01*
X0117481Y0156901D01*
X0117533Y0156872D01*
X0117584Y0156839D01*
X0117633Y0156803D01*
X0117679Y0156765D01*
X0117723Y0156723D01*
X0117765Y0156679D01*
X0117803Y0156633D01*
X0117839Y0156584D01*
X0117872Y0156533D01*
X0117901Y0156481D01*
X0117928Y0156426D01*
X0117951Y0156371D01*
X0117971Y0156314D01*
X0117987Y0156255D01*
X0118000Y0156196D01*
X0118009Y0156137D01*
X0118014Y0156076D01*
X0118016Y0156016D01*
X0118016Y0146016D01*
X0118014Y0145956D01*
X0118009Y0145895D01*
X0118000Y0145836D01*
X0117987Y0145777D01*
X0117971Y0145718D01*
X0117951Y0145661D01*
X0117928Y0145606D01*
X0117901Y0145551D01*
X0117872Y0145499D01*
X0117839Y0145448D01*
X0117803Y0145399D01*
X0117765Y0145353D01*
X0117723Y0145309D01*
X0117679Y0145267D01*
X0117633Y0145229D01*
X0117584Y0145193D01*
X0117533Y0145160D01*
X0117481Y0145131D01*
X0117426Y0145104D01*
X0117371Y0145081D01*
X0117314Y0145061D01*
X0117255Y0145045D01*
X0117196Y0145032D01*
X0117137Y0145023D01*
X0117076Y0145018D01*
X0117016Y0145016D01*
X0114516Y0145016D01*
X0114016Y0145516D01*
X0088016Y0145516D01*
X0087516Y0145016D01*
X0052516Y0121016D02*
X0049516Y0121016D01*
X0048016Y0121016D02*
X0048018Y0121125D01*
X0048024Y0121234D01*
X0048034Y0121342D01*
X0048048Y0121450D01*
X0048065Y0121558D01*
X0048087Y0121665D01*
X0048112Y0121771D01*
X0048142Y0121875D01*
X0048175Y0121979D01*
X0048212Y0122082D01*
X0048252Y0122183D01*
X0048296Y0122282D01*
X0048344Y0122380D01*
X0048396Y0122477D01*
X0048450Y0122571D01*
X0048508Y0122663D01*
X0048570Y0122753D01*
X0048635Y0122840D01*
X0048702Y0122926D01*
X0048773Y0123009D01*
X0048847Y0123089D01*
X0048924Y0123166D01*
X0049003Y0123241D01*
X0049085Y0123312D01*
X0049170Y0123381D01*
X0049257Y0123446D01*
X0049346Y0123509D01*
X0049438Y0123567D01*
X0049532Y0123623D01*
X0049627Y0123675D01*
X0049725Y0123724D01*
X0049824Y0123769D01*
X0049925Y0123811D01*
X0050027Y0123848D01*
X0050130Y0123882D01*
X0050235Y0123913D01*
X0050341Y0123939D01*
X0050447Y0123962D01*
X0050555Y0123980D01*
X0050663Y0123995D01*
X0050771Y0124006D01*
X0050880Y0124013D01*
X0050989Y0124016D01*
X0051098Y0124015D01*
X0051207Y0124010D01*
X0051315Y0124001D01*
X0051423Y0123988D01*
X0051531Y0123971D01*
X0051638Y0123951D01*
X0051744Y0123926D01*
X0051849Y0123898D01*
X0051953Y0123866D01*
X0052056Y0123830D01*
X0052158Y0123790D01*
X0052258Y0123747D01*
X0052356Y0123700D01*
X0052453Y0123650D01*
X0052547Y0123596D01*
X0052640Y0123538D01*
X0052731Y0123478D01*
X0052819Y0123414D01*
X0052905Y0123347D01*
X0052988Y0123277D01*
X0053069Y0123204D01*
X0053147Y0123128D01*
X0053222Y0123049D01*
X0053295Y0122967D01*
X0053364Y0122883D01*
X0053430Y0122797D01*
X0053493Y0122708D01*
X0053553Y0122617D01*
X0053610Y0122524D01*
X0053663Y0122429D01*
X0053712Y0122332D01*
X0053758Y0122233D01*
X0053800Y0122133D01*
X0053839Y0122031D01*
X0053874Y0121927D01*
X0053905Y0121823D01*
X0053933Y0121718D01*
X0053956Y0121611D01*
X0053976Y0121504D01*
X0053992Y0121396D01*
X0054004Y0121288D01*
X0054012Y0121179D01*
X0054016Y0121070D01*
X0054016Y0120962D01*
X0054012Y0120853D01*
X0054004Y0120744D01*
X0053992Y0120636D01*
X0053976Y0120528D01*
X0053956Y0120421D01*
X0053933Y0120314D01*
X0053905Y0120209D01*
X0053874Y0120105D01*
X0053839Y0120001D01*
X0053800Y0119899D01*
X0053758Y0119799D01*
X0053712Y0119700D01*
X0053663Y0119603D01*
X0053610Y0119508D01*
X0053553Y0119415D01*
X0053493Y0119324D01*
X0053430Y0119235D01*
X0053364Y0119149D01*
X0053295Y0119065D01*
X0053222Y0118983D01*
X0053147Y0118904D01*
X0053069Y0118828D01*
X0052988Y0118755D01*
X0052905Y0118685D01*
X0052819Y0118618D01*
X0052731Y0118554D01*
X0052640Y0118494D01*
X0052547Y0118436D01*
X0052453Y0118382D01*
X0052356Y0118332D01*
X0052258Y0118285D01*
X0052158Y0118242D01*
X0052056Y0118202D01*
X0051953Y0118166D01*
X0051849Y0118134D01*
X0051744Y0118106D01*
X0051638Y0118081D01*
X0051531Y0118061D01*
X0051423Y0118044D01*
X0051315Y0118031D01*
X0051207Y0118022D01*
X0051098Y0118017D01*
X0050989Y0118016D01*
X0050880Y0118019D01*
X0050771Y0118026D01*
X0050663Y0118037D01*
X0050555Y0118052D01*
X0050447Y0118070D01*
X0050341Y0118093D01*
X0050235Y0118119D01*
X0050130Y0118150D01*
X0050027Y0118184D01*
X0049925Y0118221D01*
X0049824Y0118263D01*
X0049725Y0118308D01*
X0049627Y0118357D01*
X0049532Y0118409D01*
X0049438Y0118465D01*
X0049346Y0118523D01*
X0049257Y0118586D01*
X0049170Y0118651D01*
X0049085Y0118720D01*
X0049003Y0118791D01*
X0048924Y0118866D01*
X0048847Y0118943D01*
X0048773Y0119023D01*
X0048702Y0119106D01*
X0048635Y0119192D01*
X0048570Y0119279D01*
X0048508Y0119369D01*
X0048450Y0119461D01*
X0048396Y0119555D01*
X0048344Y0119652D01*
X0048296Y0119750D01*
X0048252Y0119849D01*
X0048212Y0119950D01*
X0048175Y0120053D01*
X0048142Y0120157D01*
X0048112Y0120261D01*
X0048087Y0120367D01*
X0048065Y0120474D01*
X0048048Y0120582D01*
X0048034Y0120690D01*
X0048024Y0120798D01*
X0048018Y0120907D01*
X0048016Y0121016D01*
X0051016Y0119516D02*
X0051016Y0122516D01*
X0031016Y0111016D02*
X0031018Y0111157D01*
X0031024Y0111298D01*
X0031034Y0111438D01*
X0031048Y0111578D01*
X0031066Y0111718D01*
X0031087Y0111857D01*
X0031113Y0111996D01*
X0031142Y0112134D01*
X0031176Y0112270D01*
X0031213Y0112406D01*
X0031254Y0112541D01*
X0031299Y0112675D01*
X0031348Y0112807D01*
X0031400Y0112938D01*
X0031456Y0113067D01*
X0031516Y0113194D01*
X0031579Y0113320D01*
X0031645Y0113444D01*
X0031716Y0113567D01*
X0031789Y0113687D01*
X0031866Y0113805D01*
X0031946Y0113921D01*
X0032030Y0114034D01*
X0032116Y0114145D01*
X0032206Y0114254D01*
X0032299Y0114360D01*
X0032394Y0114463D01*
X0032493Y0114564D01*
X0032594Y0114662D01*
X0032698Y0114757D01*
X0032805Y0114849D01*
X0032914Y0114938D01*
X0033026Y0115023D01*
X0033140Y0115106D01*
X0033256Y0115186D01*
X0033375Y0115262D01*
X0033496Y0115334D01*
X0033618Y0115404D01*
X0033743Y0115469D01*
X0033869Y0115532D01*
X0033997Y0115590D01*
X0034127Y0115645D01*
X0034258Y0115697D01*
X0034391Y0115744D01*
X0034525Y0115788D01*
X0034660Y0115829D01*
X0034796Y0115865D01*
X0034933Y0115897D01*
X0035071Y0115926D01*
X0035209Y0115951D01*
X0035349Y0115971D01*
X0035489Y0115988D01*
X0035629Y0116001D01*
X0035770Y0116010D01*
X0035910Y0116015D01*
X0036051Y0116016D01*
X0036192Y0116013D01*
X0036333Y0116006D01*
X0036473Y0115995D01*
X0036613Y0115980D01*
X0036753Y0115961D01*
X0036892Y0115939D01*
X0037030Y0115912D01*
X0037168Y0115882D01*
X0037304Y0115847D01*
X0037440Y0115809D01*
X0037574Y0115767D01*
X0037708Y0115721D01*
X0037840Y0115672D01*
X0037970Y0115618D01*
X0038099Y0115561D01*
X0038226Y0115501D01*
X0038352Y0115437D01*
X0038475Y0115369D01*
X0038597Y0115298D01*
X0038717Y0115224D01*
X0038834Y0115146D01*
X0038949Y0115065D01*
X0039062Y0114981D01*
X0039173Y0114894D01*
X0039281Y0114803D01*
X0039386Y0114710D01*
X0039489Y0114613D01*
X0039589Y0114514D01*
X0039686Y0114412D01*
X0039780Y0114307D01*
X0039871Y0114200D01*
X0039959Y0114090D01*
X0040044Y0113978D01*
X0040126Y0113863D01*
X0040205Y0113746D01*
X0040280Y0113627D01*
X0040352Y0113506D01*
X0040420Y0113383D01*
X0040485Y0113258D01*
X0040547Y0113131D01*
X0040604Y0113002D01*
X0040659Y0112872D01*
X0040709Y0112741D01*
X0040756Y0112608D01*
X0040799Y0112474D01*
X0040838Y0112338D01*
X0040873Y0112202D01*
X0040905Y0112065D01*
X0040932Y0111927D01*
X0040956Y0111788D01*
X0040976Y0111648D01*
X0040992Y0111508D01*
X0041004Y0111368D01*
X0041012Y0111227D01*
X0041016Y0111086D01*
X0041016Y0110946D01*
X0041012Y0110805D01*
X0041004Y0110664D01*
X0040992Y0110524D01*
X0040976Y0110384D01*
X0040956Y0110244D01*
X0040932Y0110105D01*
X0040905Y0109967D01*
X0040873Y0109830D01*
X0040838Y0109694D01*
X0040799Y0109558D01*
X0040756Y0109424D01*
X0040709Y0109291D01*
X0040659Y0109160D01*
X0040604Y0109030D01*
X0040547Y0108901D01*
X0040485Y0108774D01*
X0040420Y0108649D01*
X0040352Y0108526D01*
X0040280Y0108405D01*
X0040205Y0108286D01*
X0040126Y0108169D01*
X0040044Y0108054D01*
X0039959Y0107942D01*
X0039871Y0107832D01*
X0039780Y0107725D01*
X0039686Y0107620D01*
X0039589Y0107518D01*
X0039489Y0107419D01*
X0039386Y0107322D01*
X0039281Y0107229D01*
X0039173Y0107138D01*
X0039062Y0107051D01*
X0038949Y0106967D01*
X0038834Y0106886D01*
X0038717Y0106808D01*
X0038597Y0106734D01*
X0038475Y0106663D01*
X0038352Y0106595D01*
X0038226Y0106531D01*
X0038099Y0106471D01*
X0037970Y0106414D01*
X0037840Y0106360D01*
X0037708Y0106311D01*
X0037574Y0106265D01*
X0037440Y0106223D01*
X0037304Y0106185D01*
X0037168Y0106150D01*
X0037030Y0106120D01*
X0036892Y0106093D01*
X0036753Y0106071D01*
X0036613Y0106052D01*
X0036473Y0106037D01*
X0036333Y0106026D01*
X0036192Y0106019D01*
X0036051Y0106016D01*
X0035910Y0106017D01*
X0035770Y0106022D01*
X0035629Y0106031D01*
X0035489Y0106044D01*
X0035349Y0106061D01*
X0035209Y0106081D01*
X0035071Y0106106D01*
X0034933Y0106135D01*
X0034796Y0106167D01*
X0034660Y0106203D01*
X0034525Y0106244D01*
X0034391Y0106288D01*
X0034258Y0106335D01*
X0034127Y0106387D01*
X0033997Y0106442D01*
X0033869Y0106500D01*
X0033743Y0106563D01*
X0033618Y0106628D01*
X0033496Y0106698D01*
X0033375Y0106770D01*
X0033256Y0106846D01*
X0033140Y0106926D01*
X0033026Y0107009D01*
X0032914Y0107094D01*
X0032805Y0107183D01*
X0032698Y0107275D01*
X0032594Y0107370D01*
X0032493Y0107468D01*
X0032394Y0107569D01*
X0032299Y0107672D01*
X0032206Y0107778D01*
X0032116Y0107887D01*
X0032030Y0107998D01*
X0031946Y0108111D01*
X0031866Y0108227D01*
X0031789Y0108345D01*
X0031716Y0108465D01*
X0031645Y0108588D01*
X0031579Y0108712D01*
X0031516Y0108838D01*
X0031456Y0108965D01*
X0031400Y0109094D01*
X0031348Y0109225D01*
X0031299Y0109357D01*
X0031254Y0109491D01*
X0031213Y0109626D01*
X0031176Y0109762D01*
X0031142Y0109898D01*
X0031113Y0110036D01*
X0031087Y0110175D01*
X0031066Y0110314D01*
X0031048Y0110454D01*
X0031034Y0110594D01*
X0031024Y0110734D01*
X0031018Y0110875D01*
X0031016Y0111016D01*
X0012016Y0111016D02*
X0012023Y0111605D01*
X0012045Y0112194D01*
X0012081Y0112782D01*
X0012132Y0113368D01*
X0012196Y0113954D01*
X0012276Y0114538D01*
X0012369Y0115119D01*
X0012477Y0115698D01*
X0012599Y0116274D01*
X0012735Y0116848D01*
X0012885Y0117417D01*
X0013049Y0117983D01*
X0013227Y0118544D01*
X0013419Y0119101D01*
X0013624Y0119653D01*
X0013843Y0120200D01*
X0014075Y0120742D01*
X0014320Y0121277D01*
X0014579Y0121807D01*
X0014850Y0122330D01*
X0015134Y0122846D01*
X0015431Y0123354D01*
X0015740Y0123856D01*
X0016061Y0124350D01*
X0016394Y0124835D01*
X0016739Y0125313D01*
X0017096Y0125782D01*
X0017464Y0126241D01*
X0017843Y0126692D01*
X0018233Y0127133D01*
X0018634Y0127565D01*
X0019045Y0127987D01*
X0019467Y0128398D01*
X0019899Y0128799D01*
X0020340Y0129189D01*
X0020791Y0129568D01*
X0021250Y0129936D01*
X0021719Y0130293D01*
X0022197Y0130638D01*
X0022682Y0130971D01*
X0023176Y0131292D01*
X0023678Y0131601D01*
X0024186Y0131898D01*
X0024702Y0132182D01*
X0025225Y0132453D01*
X0025755Y0132712D01*
X0026290Y0132957D01*
X0026832Y0133189D01*
X0027379Y0133408D01*
X0027931Y0133613D01*
X0028488Y0133805D01*
X0029049Y0133983D01*
X0029615Y0134147D01*
X0030184Y0134297D01*
X0030758Y0134433D01*
X0031334Y0134555D01*
X0031913Y0134663D01*
X0032494Y0134756D01*
X0033078Y0134836D01*
X0033664Y0134900D01*
X0034250Y0134951D01*
X0034838Y0134987D01*
X0035427Y0135009D01*
X0036016Y0135016D01*
X0036605Y0135009D01*
X0037194Y0134987D01*
X0037782Y0134951D01*
X0038368Y0134900D01*
X0038954Y0134836D01*
X0039538Y0134756D01*
X0040119Y0134663D01*
X0040698Y0134555D01*
X0041274Y0134433D01*
X0041848Y0134297D01*
X0042417Y0134147D01*
X0042983Y0133983D01*
X0043544Y0133805D01*
X0044101Y0133613D01*
X0044653Y0133408D01*
X0045200Y0133189D01*
X0045742Y0132957D01*
X0046277Y0132712D01*
X0046807Y0132453D01*
X0047330Y0132182D01*
X0047846Y0131898D01*
X0048354Y0131601D01*
X0048856Y0131292D01*
X0049350Y0130971D01*
X0049835Y0130638D01*
X0050313Y0130293D01*
X0050782Y0129936D01*
X0051241Y0129568D01*
X0051692Y0129189D01*
X0052133Y0128799D01*
X0052565Y0128398D01*
X0052987Y0127987D01*
X0053398Y0127565D01*
X0053799Y0127133D01*
X0054189Y0126692D01*
X0054568Y0126241D01*
X0054936Y0125782D01*
X0055293Y0125313D01*
X0055638Y0124835D01*
X0055971Y0124350D01*
X0056292Y0123856D01*
X0056601Y0123354D01*
X0056898Y0122846D01*
X0057182Y0122330D01*
X0057453Y0121807D01*
X0057712Y0121277D01*
X0057957Y0120742D01*
X0058189Y0120200D01*
X0058408Y0119653D01*
X0058613Y0119101D01*
X0058805Y0118544D01*
X0058983Y0117983D01*
X0059147Y0117417D01*
X0059297Y0116848D01*
X0059433Y0116274D01*
X0059555Y0115698D01*
X0059663Y0115119D01*
X0059756Y0114538D01*
X0059836Y0113954D01*
X0059900Y0113368D01*
X0059951Y0112782D01*
X0059987Y0112194D01*
X0060009Y0111605D01*
X0060016Y0111016D01*
X0060009Y0110427D01*
X0059987Y0109838D01*
X0059951Y0109250D01*
X0059900Y0108664D01*
X0059836Y0108078D01*
X0059756Y0107494D01*
X0059663Y0106913D01*
X0059555Y0106334D01*
X0059433Y0105758D01*
X0059297Y0105184D01*
X0059147Y0104615D01*
X0058983Y0104049D01*
X0058805Y0103488D01*
X0058613Y0102931D01*
X0058408Y0102379D01*
X0058189Y0101832D01*
X0057957Y0101290D01*
X0057712Y0100755D01*
X0057453Y0100225D01*
X0057182Y0099702D01*
X0056898Y0099186D01*
X0056601Y0098678D01*
X0056292Y0098176D01*
X0055971Y0097682D01*
X0055638Y0097197D01*
X0055293Y0096719D01*
X0054936Y0096250D01*
X0054568Y0095791D01*
X0054189Y0095340D01*
X0053799Y0094899D01*
X0053398Y0094467D01*
X0052987Y0094045D01*
X0052565Y0093634D01*
X0052133Y0093233D01*
X0051692Y0092843D01*
X0051241Y0092464D01*
X0050782Y0092096D01*
X0050313Y0091739D01*
X0049835Y0091394D01*
X0049350Y0091061D01*
X0048856Y0090740D01*
X0048354Y0090431D01*
X0047846Y0090134D01*
X0047330Y0089850D01*
X0046807Y0089579D01*
X0046277Y0089320D01*
X0045742Y0089075D01*
X0045200Y0088843D01*
X0044653Y0088624D01*
X0044101Y0088419D01*
X0043544Y0088227D01*
X0042983Y0088049D01*
X0042417Y0087885D01*
X0041848Y0087735D01*
X0041274Y0087599D01*
X0040698Y0087477D01*
X0040119Y0087369D01*
X0039538Y0087276D01*
X0038954Y0087196D01*
X0038368Y0087132D01*
X0037782Y0087081D01*
X0037194Y0087045D01*
X0036605Y0087023D01*
X0036016Y0087016D01*
X0035427Y0087023D01*
X0034838Y0087045D01*
X0034250Y0087081D01*
X0033664Y0087132D01*
X0033078Y0087196D01*
X0032494Y0087276D01*
X0031913Y0087369D01*
X0031334Y0087477D01*
X0030758Y0087599D01*
X0030184Y0087735D01*
X0029615Y0087885D01*
X0029049Y0088049D01*
X0028488Y0088227D01*
X0027931Y0088419D01*
X0027379Y0088624D01*
X0026832Y0088843D01*
X0026290Y0089075D01*
X0025755Y0089320D01*
X0025225Y0089579D01*
X0024702Y0089850D01*
X0024186Y0090134D01*
X0023678Y0090431D01*
X0023176Y0090740D01*
X0022682Y0091061D01*
X0022197Y0091394D01*
X0021719Y0091739D01*
X0021250Y0092096D01*
X0020791Y0092464D01*
X0020340Y0092843D01*
X0019899Y0093233D01*
X0019467Y0093634D01*
X0019045Y0094045D01*
X0018634Y0094467D01*
X0018233Y0094899D01*
X0017843Y0095340D01*
X0017464Y0095791D01*
X0017096Y0096250D01*
X0016739Y0096719D01*
X0016394Y0097197D01*
X0016061Y0097682D01*
X0015740Y0098176D01*
X0015431Y0098678D01*
X0015134Y0099186D01*
X0014850Y0099702D01*
X0014579Y0100225D01*
X0014320Y0100755D01*
X0014075Y0101290D01*
X0013843Y0101832D01*
X0013624Y0102379D01*
X0013419Y0102931D01*
X0013227Y0103488D01*
X0013049Y0104049D01*
X0012885Y0104615D01*
X0012735Y0105184D01*
X0012599Y0105758D01*
X0012477Y0106334D01*
X0012369Y0106913D01*
X0012276Y0107494D01*
X0012196Y0108078D01*
X0012132Y0108664D01*
X0012081Y0109250D01*
X0012045Y0109838D01*
X0012023Y0110427D01*
X0012016Y0111016D01*
X0018516Y0151016D02*
X0016016Y0153516D01*
X0016016Y0158516D01*
X0018516Y0161016D01*
X0016016Y0163516D01*
X0016016Y0168516D01*
X0018516Y0171016D01*
X0016016Y0173516D01*
X0016016Y0178516D01*
X0018516Y0181016D01*
X0016016Y0183516D01*
X0016016Y0188516D01*
X0018516Y0191016D01*
X0016016Y0193516D01*
X0016016Y0198516D01*
X0018516Y0201016D01*
X0016016Y0203516D01*
X0016016Y0208516D01*
X0018516Y0211016D01*
X0016016Y0213516D01*
X0016016Y0218516D01*
X0018516Y0221016D01*
X0016016Y0223516D01*
X0016016Y0228516D01*
X0018516Y0231016D01*
X0023516Y0231016D01*
X0026016Y0228516D01*
X0026016Y0223516D01*
X0023516Y0221016D01*
X0026016Y0218516D01*
X0026016Y0213516D01*
X0023516Y0211016D01*
X0018516Y0211016D01*
X0023516Y0211016D02*
X0026016Y0208516D01*
X0026016Y0203516D01*
X0023516Y0201016D01*
X0026016Y0198516D01*
X0026016Y0193516D01*
X0023516Y0191016D01*
X0026016Y0188516D01*
X0026016Y0183516D01*
X0023516Y0181016D01*
X0018516Y0181016D01*
X0023516Y0181016D02*
X0026016Y0178516D01*
X0026016Y0173516D01*
X0023516Y0171016D01*
X0026016Y0168516D01*
X0026016Y0163516D01*
X0023516Y0161016D01*
X0026016Y0158516D01*
X0026016Y0153516D01*
X0023516Y0151016D01*
X0018516Y0151016D01*
X0018516Y0161016D02*
X0023516Y0161016D01*
X0023516Y0171016D02*
X0018516Y0171016D01*
X0018516Y0191016D02*
X0023516Y0191016D01*
X0023516Y0201016D02*
X0018516Y0201016D01*
X0018516Y0221016D02*
X0023516Y0221016D01*
X0023516Y0236016D02*
X0021016Y0238516D01*
X0018516Y0236016D01*
X0013516Y0236016D01*
X0011016Y0238516D01*
X0011016Y0243516D01*
X0013516Y0246016D01*
X0018516Y0246016D01*
X0021016Y0243516D01*
X0023516Y0246016D01*
X0028516Y0246016D01*
X0031016Y0243516D01*
X0031016Y0238516D01*
X0028516Y0236016D01*
X0023516Y0236016D01*
X0021016Y0238516D02*
X0021016Y0243516D01*
X0041016Y0238516D02*
X0041016Y0233516D01*
X0043516Y0231016D01*
X0048516Y0231016D01*
X0051016Y0233516D01*
X0051016Y0238516D01*
X0048516Y0241016D01*
X0043516Y0241016D01*
X0041016Y0238516D01*
X0051016Y0238516D02*
X0053516Y0241016D01*
X0058516Y0241016D01*
X0061016Y0238516D01*
X0063516Y0241016D01*
X0068516Y0241016D01*
X0071016Y0238516D01*
X0073516Y0241016D01*
X0078516Y0241016D01*
X0081016Y0238516D01*
X0083516Y0241016D01*
X0088516Y0241016D01*
X0091016Y0238516D01*
X0093516Y0241016D01*
X0098516Y0241016D01*
X0101016Y0238516D01*
X0103516Y0241016D01*
X0108516Y0241016D01*
X0111016Y0238516D01*
X0111016Y0233516D01*
X0108516Y0231016D01*
X0103516Y0231016D01*
X0101016Y0233516D01*
X0098516Y0231016D01*
X0093516Y0231016D01*
X0091016Y0233516D01*
X0091016Y0238516D01*
X0091016Y0233516D02*
X0088516Y0231016D01*
X0083516Y0231016D01*
X0081016Y0233516D01*
X0078516Y0231016D01*
X0073516Y0231016D01*
X0071016Y0233516D01*
X0068516Y0231016D01*
X0063516Y0231016D01*
X0061016Y0233516D01*
X0061016Y0238516D01*
X0061016Y0233516D02*
X0058516Y0231016D01*
X0053516Y0231016D01*
X0051016Y0233516D01*
X0071016Y0233516D02*
X0071016Y0238516D01*
X0081016Y0238516D02*
X0081016Y0233516D01*
X0101016Y0233516D02*
X0101016Y0238516D01*
X0121016Y0238516D02*
X0121016Y0233516D01*
X0123516Y0231016D01*
X0128516Y0231016D01*
X0131016Y0233516D01*
X0131016Y0238516D01*
X0128516Y0241016D01*
X0123516Y0241016D01*
X0121016Y0238516D01*
X0131016Y0238516D02*
X0133516Y0241016D01*
X0138516Y0241016D01*
X0141016Y0238516D01*
X0143516Y0241016D01*
X0148516Y0241016D01*
X0151016Y0238516D01*
X0153516Y0241016D01*
X0158516Y0241016D01*
X0161016Y0238516D01*
X0163516Y0241016D01*
X0168516Y0241016D01*
X0171016Y0238516D01*
X0173516Y0241016D01*
X0178516Y0241016D01*
X0181016Y0238516D01*
X0183516Y0241016D01*
X0188516Y0241016D01*
X0191016Y0238516D01*
X0191016Y0233516D01*
X0188516Y0231016D01*
X0183516Y0231016D01*
X0181016Y0233516D01*
X0178516Y0231016D01*
X0173516Y0231016D01*
X0171016Y0233516D01*
X0171016Y0238516D01*
X0171016Y0233516D02*
X0168516Y0231016D01*
X0163516Y0231016D01*
X0161016Y0233516D01*
X0158516Y0231016D01*
X0153516Y0231016D01*
X0151016Y0233516D01*
X0148516Y0231016D01*
X0143516Y0231016D01*
X0141016Y0233516D01*
X0141016Y0238516D01*
X0141016Y0233516D02*
X0138516Y0231016D01*
X0133516Y0231016D01*
X0131016Y0233516D01*
X0151016Y0233516D02*
X0151016Y0238516D01*
X0161016Y0238516D02*
X0161016Y0233516D01*
X0181016Y0233516D02*
X0181016Y0238516D01*
X0206016Y0228516D02*
X0206016Y0223516D01*
X0208516Y0221016D01*
X0213516Y0221016D01*
X0216016Y0223516D01*
X0216016Y0228516D01*
X0213516Y0231016D01*
X0208516Y0231016D01*
X0206016Y0228516D01*
X0208516Y0221016D02*
X0206016Y0218516D01*
X0206016Y0213516D01*
X0208516Y0211016D01*
X0213516Y0211016D01*
X0216016Y0213516D01*
X0216016Y0218516D01*
X0213516Y0221016D01*
X0213516Y0211016D02*
X0216016Y0208516D01*
X0216016Y0203516D01*
X0213516Y0201016D01*
X0216016Y0198516D01*
X0216016Y0193516D01*
X0213516Y0191016D01*
X0216016Y0188516D01*
X0216016Y0183516D01*
X0213516Y0181016D01*
X0216016Y0178516D01*
X0216016Y0173516D01*
X0213516Y0171016D01*
X0208516Y0171016D01*
X0206016Y0173516D01*
X0206016Y0178516D01*
X0208516Y0181016D01*
X0206016Y0183516D01*
X0206016Y0188516D01*
X0208516Y0191016D01*
X0213516Y0191016D01*
X0208516Y0191016D02*
X0206016Y0193516D01*
X0206016Y0198516D01*
X0208516Y0201016D01*
X0206016Y0203516D01*
X0206016Y0208516D01*
X0208516Y0211016D01*
X0208516Y0201016D02*
X0213516Y0201016D01*
X0213516Y0181016D02*
X0208516Y0181016D01*
X0176016Y0158516D02*
X0176016Y0153516D01*
X0173516Y0151016D01*
X0168516Y0151016D01*
X0166016Y0153516D01*
X0163516Y0151016D01*
X0158516Y0151016D01*
X0156016Y0153516D01*
X0156016Y0158516D01*
X0158516Y0161016D01*
X0163516Y0161016D01*
X0166016Y0158516D01*
X0168516Y0161016D01*
X0173516Y0161016D01*
X0176016Y0158516D01*
X0166016Y0158516D02*
X0166016Y0153516D01*
X0123516Y0046016D02*
X0118516Y0046016D01*
X0116016Y0043516D01*
X0116016Y0038516D01*
X0118516Y0036016D01*
X0123516Y0036016D01*
X0126016Y0038516D01*
X0126016Y0043516D01*
X0123516Y0046016D01*
X0116016Y0043516D02*
X0113516Y0046016D01*
X0108516Y0046016D01*
X0106016Y0043516D01*
X0106016Y0038516D01*
X0108516Y0036016D01*
X0113516Y0036016D01*
X0116016Y0038516D01*
D11*
X0082016Y0039016D02*
X0082016Y0036016D01*
X0082016Y0033016D01*
X0080016Y0033016D02*
X0080016Y0036016D01*
X0080016Y0039016D01*
D12*
X0111016Y0123516D02*
X0111016Y0138516D01*
D13*
X0111345Y0138825D02*
X0110625Y0138285D01*
X0110626Y0138286D02*
X0110445Y0138519D01*
X0110259Y0138747D01*
X0110067Y0138971D01*
X0109870Y0139190D01*
X0109668Y0139404D01*
X0109460Y0139613D01*
X0109247Y0139816D01*
X0109030Y0140015D01*
X0108807Y0140208D01*
X0108580Y0140396D01*
X0108349Y0140578D01*
X0108113Y0140755D01*
X0107872Y0140925D01*
X0107628Y0141090D01*
X0107380Y0141248D01*
X0107128Y0141401D01*
X0106872Y0141547D01*
X0106613Y0141687D01*
X0106350Y0141821D01*
X0106085Y0141948D01*
X0105816Y0142069D01*
X0105544Y0142183D01*
X0105270Y0142290D01*
X0104993Y0142391D01*
X0104714Y0142485D01*
X0104432Y0142572D01*
X0104149Y0142652D01*
X0103863Y0142725D01*
X0103576Y0142791D01*
X0103287Y0142850D01*
X0102997Y0142902D01*
X0102706Y0142947D01*
X0102414Y0142985D01*
X0102121Y0143015D01*
X0101827Y0143039D01*
X0101533Y0143055D01*
X0101239Y0143064D01*
X0100944Y0143066D01*
X0100649Y0143060D01*
X0100355Y0143048D01*
X0100061Y0143028D01*
X0099768Y0143001D01*
X0099475Y0142967D01*
X0099183Y0142926D01*
X0098893Y0142877D01*
X0098603Y0142822D01*
X0098316Y0142760D01*
X0098029Y0142690D01*
X0097745Y0142613D01*
X0097462Y0142530D01*
X0097182Y0142440D01*
X0096904Y0142343D01*
X0096628Y0142239D01*
X0096355Y0142128D01*
X0096085Y0142011D01*
X0095817Y0141887D01*
X0095553Y0141757D01*
X0095292Y0141620D01*
X0095035Y0141477D01*
X0094781Y0141327D01*
X0094530Y0141172D01*
X0094284Y0141010D01*
X0094042Y0140843D01*
X0093804Y0140669D01*
X0093570Y0140490D01*
X0093340Y0140305D01*
X0093116Y0140115D01*
X0092895Y0139919D01*
X0092680Y0139718D01*
X0092470Y0139511D01*
X0092265Y0139300D01*
X0092065Y0139083D01*
X0091870Y0138862D01*
X0091681Y0138636D01*
X0091498Y0138406D01*
X0091320Y0138171D01*
X0091148Y0137931D01*
X0090982Y0137688D01*
X0090822Y0137441D01*
X0090668Y0137190D01*
X0090520Y0136935D01*
X0090378Y0136676D01*
X0090243Y0136415D01*
X0090114Y0136150D01*
X0089992Y0135882D01*
X0089876Y0135611D01*
X0089767Y0135337D01*
X0089665Y0135061D01*
X0089570Y0134782D01*
X0089481Y0134501D01*
X0089399Y0134218D01*
X0089324Y0133933D01*
X0089257Y0133646D01*
X0089196Y0133358D01*
X0089142Y0133068D01*
X0089095Y0132777D01*
X0089056Y0132485D01*
X0089024Y0132193D01*
X0088998Y0131899D01*
X0088980Y0131605D01*
X0088970Y0131311D01*
X0088966Y0131016D01*
X0088970Y0130721D01*
X0088980Y0130427D01*
X0088998Y0130133D01*
X0089024Y0129839D01*
X0089056Y0129547D01*
X0089095Y0129255D01*
X0089142Y0128964D01*
X0089196Y0128674D01*
X0089257Y0128386D01*
X0089324Y0128099D01*
X0089399Y0127814D01*
X0089481Y0127531D01*
X0089570Y0127250D01*
X0089665Y0126971D01*
X0089767Y0126695D01*
X0089876Y0126421D01*
X0089992Y0126150D01*
X0090114Y0125882D01*
X0090243Y0125617D01*
X0090378Y0125356D01*
X0090520Y0125097D01*
X0090668Y0124842D01*
X0090822Y0124591D01*
X0090982Y0124344D01*
X0091148Y0124101D01*
X0091320Y0123861D01*
X0091498Y0123626D01*
X0091681Y0123396D01*
X0091870Y0123170D01*
X0092065Y0122949D01*
X0092265Y0122732D01*
X0092470Y0122521D01*
X0092680Y0122314D01*
X0092895Y0122113D01*
X0093116Y0121917D01*
X0093340Y0121727D01*
X0093570Y0121542D01*
X0093804Y0121363D01*
X0094042Y0121189D01*
X0094284Y0121022D01*
X0094530Y0120860D01*
X0094781Y0120705D01*
X0095035Y0120555D01*
X0095292Y0120412D01*
X0095553Y0120275D01*
X0095817Y0120145D01*
X0096085Y0120021D01*
X0096355Y0119904D01*
X0096628Y0119793D01*
X0096904Y0119689D01*
X0097182Y0119592D01*
X0097462Y0119502D01*
X0097745Y0119419D01*
X0098029Y0119342D01*
X0098316Y0119272D01*
X0098603Y0119210D01*
X0098893Y0119155D01*
X0099183Y0119106D01*
X0099475Y0119065D01*
X0099768Y0119031D01*
X0100061Y0119004D01*
X0100355Y0118984D01*
X0100649Y0118972D01*
X0100944Y0118966D01*
X0101239Y0118968D01*
X0101533Y0118977D01*
X0101827Y0118993D01*
X0102121Y0119017D01*
X0102414Y0119047D01*
X0102706Y0119085D01*
X0102997Y0119130D01*
X0103287Y0119182D01*
X0103576Y0119241D01*
X0103863Y0119307D01*
X0104149Y0119380D01*
X0104432Y0119460D01*
X0104714Y0119547D01*
X0104993Y0119641D01*
X0105270Y0119742D01*
X0105544Y0119849D01*
X0105816Y0119963D01*
X0106085Y0120084D01*
X0106350Y0120211D01*
X0106613Y0120345D01*
X0106872Y0120485D01*
X0107128Y0120631D01*
X0107380Y0120784D01*
X0107628Y0120942D01*
X0107872Y0121107D01*
X0108113Y0121277D01*
X0108349Y0121454D01*
X0108580Y0121636D01*
X0108807Y0121824D01*
X0109030Y0122017D01*
X0109247Y0122216D01*
X0109460Y0122419D01*
X0109668Y0122628D01*
X0109870Y0122842D01*
X0110067Y0123061D01*
X0110259Y0123285D01*
X0110445Y0123513D01*
X0110626Y0123746D01*
X0111345Y0123207D01*
X0111346Y0123206D01*
X0111152Y0122956D01*
X0110952Y0122710D01*
X0110746Y0122470D01*
X0110534Y0122235D01*
X0110316Y0122005D01*
X0110093Y0121780D01*
X0109865Y0121561D01*
X0109631Y0121347D01*
X0109392Y0121139D01*
X0109148Y0120937D01*
X0108899Y0120742D01*
X0108645Y0120552D01*
X0108387Y0120369D01*
X0108125Y0120192D01*
X0107858Y0120021D01*
X0107587Y0119857D01*
X0107312Y0119700D01*
X0107034Y0119549D01*
X0106751Y0119405D01*
X0106466Y0119269D01*
X0106177Y0119139D01*
X0105885Y0119016D01*
X0105590Y0118901D01*
X0105293Y0118793D01*
X0104992Y0118692D01*
X0104690Y0118598D01*
X0104385Y0118512D01*
X0104078Y0118433D01*
X0103770Y0118362D01*
X0103460Y0118299D01*
X0103148Y0118243D01*
X0102835Y0118194D01*
X0102521Y0118154D01*
X0102206Y0118121D01*
X0101890Y0118096D01*
X0101574Y0118078D01*
X0101258Y0118068D01*
X0100941Y0118066D01*
X0100624Y0118072D01*
X0100308Y0118085D01*
X0099992Y0118107D01*
X0099677Y0118135D01*
X0099362Y0118172D01*
X0099049Y0118216D01*
X0098736Y0118268D01*
X0098425Y0118328D01*
X0098116Y0118395D01*
X0097808Y0118470D01*
X0097502Y0118552D01*
X0097199Y0118641D01*
X0096897Y0118738D01*
X0096598Y0118843D01*
X0096302Y0118955D01*
X0096008Y0119073D01*
X0095718Y0119199D01*
X0095431Y0119332D01*
X0095146Y0119473D01*
X0094866Y0119620D01*
X0094589Y0119773D01*
X0094316Y0119934D01*
X0094047Y0120101D01*
X0093782Y0120275D01*
X0093522Y0120455D01*
X0093266Y0120641D01*
X0093015Y0120834D01*
X0092768Y0121032D01*
X0092526Y0121237D01*
X0092290Y0121447D01*
X0092058Y0121664D01*
X0091833Y0121886D01*
X0091612Y0122113D01*
X0091397Y0122345D01*
X0091188Y0122583D01*
X0090985Y0122826D01*
X0090787Y0123074D01*
X0090596Y0123326D01*
X0090411Y0123583D01*
X0090233Y0123845D01*
X0090061Y0124111D01*
X0089895Y0124380D01*
X0089736Y0124654D01*
X0089584Y0124932D01*
X0089439Y0125213D01*
X0089300Y0125498D01*
X0089169Y0125786D01*
X0089045Y0126078D01*
X0088927Y0126372D01*
X0088817Y0126669D01*
X0088715Y0126968D01*
X0088620Y0127270D01*
X0088532Y0127574D01*
X0088451Y0127881D01*
X0088378Y0128189D01*
X0088313Y0128499D01*
X0088255Y0128810D01*
X0088205Y0129123D01*
X0088163Y0129437D01*
X0088128Y0129751D01*
X0088101Y0130067D01*
X0088081Y0130383D01*
X0088070Y0130699D01*
X0088066Y0131016D01*
X0088070Y0131333D01*
X0088081Y0131649D01*
X0088101Y0131965D01*
X0088128Y0132281D01*
X0088163Y0132595D01*
X0088205Y0132909D01*
X0088255Y0133222D01*
X0088313Y0133533D01*
X0088378Y0133843D01*
X0088451Y0134151D01*
X0088532Y0134458D01*
X0088620Y0134762D01*
X0088715Y0135064D01*
X0088817Y0135363D01*
X0088927Y0135660D01*
X0089045Y0135954D01*
X0089169Y0136246D01*
X0089300Y0136534D01*
X0089439Y0136819D01*
X0089584Y0137100D01*
X0089736Y0137378D01*
X0089895Y0137652D01*
X0090061Y0137921D01*
X0090233Y0138187D01*
X0090411Y0138449D01*
X0090596Y0138706D01*
X0090787Y0138958D01*
X0090985Y0139206D01*
X0091188Y0139449D01*
X0091397Y0139687D01*
X0091612Y0139919D01*
X0091833Y0140146D01*
X0092058Y0140368D01*
X0092290Y0140585D01*
X0092526Y0140795D01*
X0092768Y0141000D01*
X0093015Y0141198D01*
X0093266Y0141391D01*
X0093522Y0141577D01*
X0093782Y0141757D01*
X0094047Y0141931D01*
X0094316Y0142098D01*
X0094589Y0142259D01*
X0094866Y0142412D01*
X0095146Y0142559D01*
X0095431Y0142700D01*
X0095718Y0142833D01*
X0096008Y0142959D01*
X0096302Y0143077D01*
X0096598Y0143189D01*
X0096897Y0143294D01*
X0097199Y0143391D01*
X0097502Y0143480D01*
X0097808Y0143562D01*
X0098116Y0143637D01*
X0098425Y0143704D01*
X0098736Y0143764D01*
X0099049Y0143816D01*
X0099362Y0143860D01*
X0099677Y0143897D01*
X0099992Y0143925D01*
X0100308Y0143947D01*
X0100624Y0143960D01*
X0100941Y0143966D01*
X0101258Y0143964D01*
X0101574Y0143954D01*
X0101890Y0143936D01*
X0102206Y0143911D01*
X0102521Y0143878D01*
X0102835Y0143838D01*
X0103148Y0143789D01*
X0103460Y0143733D01*
X0103770Y0143670D01*
X0104078Y0143599D01*
X0104385Y0143520D01*
X0104690Y0143434D01*
X0104992Y0143340D01*
X0105293Y0143239D01*
X0105590Y0143131D01*
X0105885Y0143016D01*
X0106177Y0142893D01*
X0106466Y0142763D01*
X0106751Y0142627D01*
X0107034Y0142483D01*
X0107312Y0142332D01*
X0107587Y0142175D01*
X0107858Y0142011D01*
X0108125Y0141840D01*
X0108387Y0141663D01*
X0108645Y0141480D01*
X0108899Y0141290D01*
X0109148Y0141095D01*
X0109392Y0140893D01*
X0109631Y0140685D01*
X0109865Y0140471D01*
X0110093Y0140252D01*
X0110316Y0140027D01*
X0110534Y0139797D01*
X0110746Y0139562D01*
X0110952Y0139322D01*
X0111152Y0139076D01*
X0111346Y0138826D01*
X0111271Y0138770D01*
X0111078Y0139018D01*
X0110879Y0139262D01*
X0110675Y0139500D01*
X0110465Y0139734D01*
X0110249Y0139962D01*
X0110027Y0140185D01*
X0109800Y0140403D01*
X0109568Y0140615D01*
X0109331Y0140821D01*
X0109089Y0141022D01*
X0108841Y0141216D01*
X0108590Y0141404D01*
X0108333Y0141586D01*
X0108073Y0141762D01*
X0107808Y0141931D01*
X0107539Y0142094D01*
X0107266Y0142250D01*
X0106990Y0142400D01*
X0106710Y0142542D01*
X0106426Y0142678D01*
X0106139Y0142807D01*
X0105849Y0142929D01*
X0105557Y0143043D01*
X0105261Y0143151D01*
X0104963Y0143251D01*
X0104663Y0143344D01*
X0104360Y0143429D01*
X0104056Y0143507D01*
X0103750Y0143578D01*
X0103442Y0143641D01*
X0103132Y0143697D01*
X0102822Y0143745D01*
X0102510Y0143785D01*
X0102197Y0143818D01*
X0101884Y0143843D01*
X0101570Y0143860D01*
X0101256Y0143870D01*
X0100941Y0143872D01*
X0100627Y0143866D01*
X0100313Y0143853D01*
X0099999Y0143832D01*
X0099686Y0143803D01*
X0099374Y0143767D01*
X0099063Y0143723D01*
X0098753Y0143671D01*
X0098444Y0143612D01*
X0098137Y0143545D01*
X0097831Y0143471D01*
X0097528Y0143390D01*
X0097226Y0143301D01*
X0096927Y0143204D01*
X0096630Y0143101D01*
X0096336Y0142990D01*
X0096045Y0142872D01*
X0095756Y0142747D01*
X0095471Y0142615D01*
X0095189Y0142476D01*
X0094911Y0142330D01*
X0094636Y0142177D01*
X0094365Y0142018D01*
X0094098Y0141852D01*
X0093835Y0141679D01*
X0093576Y0141501D01*
X0093322Y0141316D01*
X0093073Y0141124D01*
X0092828Y0140927D01*
X0092588Y0140724D01*
X0092353Y0140515D01*
X0092123Y0140300D01*
X0091899Y0140080D01*
X0091680Y0139855D01*
X0091467Y0139624D01*
X0091259Y0139388D01*
X0091057Y0139146D01*
X0090862Y0138901D01*
X0090672Y0138650D01*
X0090488Y0138395D01*
X0090311Y0138135D01*
X0090140Y0137871D01*
X0089976Y0137603D01*
X0089818Y0137331D01*
X0089667Y0137056D01*
X0089523Y0136776D01*
X0089385Y0136494D01*
X0089255Y0136208D01*
X0089131Y0135919D01*
X0089015Y0135626D01*
X0088906Y0135332D01*
X0088804Y0135034D01*
X0088710Y0134735D01*
X0088622Y0134432D01*
X0088542Y0134128D01*
X0088470Y0133823D01*
X0088405Y0133515D01*
X0088348Y0133206D01*
X0088298Y0132895D01*
X0088256Y0132584D01*
X0088221Y0132271D01*
X0088195Y0131958D01*
X0088175Y0131644D01*
X0088164Y0131330D01*
X0088160Y0131016D01*
X0088164Y0130702D01*
X0088175Y0130388D01*
X0088195Y0130074D01*
X0088221Y0129761D01*
X0088256Y0129448D01*
X0088298Y0129137D01*
X0088348Y0128826D01*
X0088405Y0128517D01*
X0088470Y0128209D01*
X0088542Y0127904D01*
X0088622Y0127600D01*
X0088710Y0127297D01*
X0088804Y0126998D01*
X0088906Y0126700D01*
X0089015Y0126406D01*
X0089131Y0126113D01*
X0089255Y0125824D01*
X0089385Y0125538D01*
X0089523Y0125256D01*
X0089667Y0124976D01*
X0089818Y0124701D01*
X0089976Y0124429D01*
X0090140Y0124161D01*
X0090311Y0123897D01*
X0090488Y0123637D01*
X0090672Y0123382D01*
X0090862Y0123131D01*
X0091057Y0122886D01*
X0091259Y0122644D01*
X0091467Y0122408D01*
X0091680Y0122177D01*
X0091899Y0121952D01*
X0092123Y0121732D01*
X0092353Y0121517D01*
X0092588Y0121308D01*
X0092828Y0121105D01*
X0093073Y0120908D01*
X0093322Y0120716D01*
X0093576Y0120531D01*
X0093835Y0120353D01*
X0094098Y0120180D01*
X0094365Y0120014D01*
X0094636Y0119855D01*
X0094911Y0119702D01*
X0095189Y0119556D01*
X0095471Y0119417D01*
X0095756Y0119285D01*
X0096045Y0119160D01*
X0096336Y0119042D01*
X0096630Y0118931D01*
X0096927Y0118828D01*
X0097226Y0118731D01*
X0097528Y0118642D01*
X0097831Y0118561D01*
X0098137Y0118487D01*
X0098444Y0118420D01*
X0098753Y0118361D01*
X0099063Y0118309D01*
X0099374Y0118265D01*
X0099686Y0118229D01*
X0099999Y0118200D01*
X0100313Y0118179D01*
X0100627Y0118166D01*
X0100941Y0118160D01*
X0101256Y0118162D01*
X0101570Y0118172D01*
X0101884Y0118189D01*
X0102197Y0118214D01*
X0102510Y0118247D01*
X0102822Y0118287D01*
X0103132Y0118335D01*
X0103442Y0118391D01*
X0103750Y0118454D01*
X0104056Y0118525D01*
X0104360Y0118603D01*
X0104663Y0118688D01*
X0104963Y0118781D01*
X0105261Y0118881D01*
X0105557Y0118989D01*
X0105849Y0119103D01*
X0106139Y0119225D01*
X0106426Y0119354D01*
X0106710Y0119490D01*
X0106990Y0119632D01*
X0107266Y0119782D01*
X0107539Y0119938D01*
X0107808Y0120101D01*
X0108073Y0120270D01*
X0108333Y0120446D01*
X0108590Y0120628D01*
X0108841Y0120816D01*
X0109089Y0121010D01*
X0109331Y0121211D01*
X0109568Y0121417D01*
X0109800Y0121629D01*
X0110027Y0121847D01*
X0110249Y0122070D01*
X0110465Y0122298D01*
X0110675Y0122532D01*
X0110879Y0122770D01*
X0111078Y0123014D01*
X0111271Y0123262D01*
X0111196Y0123319D01*
X0111004Y0123072D01*
X0110807Y0122830D01*
X0110604Y0122593D01*
X0110395Y0122362D01*
X0110181Y0122135D01*
X0109961Y0121913D01*
X0109736Y0121697D01*
X0109505Y0121487D01*
X0109270Y0121282D01*
X0109029Y0121083D01*
X0108784Y0120890D01*
X0108534Y0120704D01*
X0108280Y0120523D01*
X0108021Y0120348D01*
X0107758Y0120180D01*
X0107491Y0120019D01*
X0107220Y0119864D01*
X0106946Y0119715D01*
X0106668Y0119574D01*
X0106386Y0119439D01*
X0106102Y0119311D01*
X0105814Y0119190D01*
X0105523Y0119076D01*
X0105230Y0118970D01*
X0104934Y0118870D01*
X0104636Y0118778D01*
X0104336Y0118693D01*
X0104033Y0118616D01*
X0103729Y0118546D01*
X0103424Y0118483D01*
X0103117Y0118428D01*
X0102808Y0118380D01*
X0102499Y0118340D01*
X0102188Y0118308D01*
X0101877Y0118283D01*
X0101566Y0118266D01*
X0101254Y0118256D01*
X0100942Y0118254D01*
X0100630Y0118260D01*
X0100318Y0118273D01*
X0100007Y0118294D01*
X0099696Y0118322D01*
X0099386Y0118359D01*
X0099077Y0118402D01*
X0098769Y0118453D01*
X0098462Y0118512D01*
X0098158Y0118578D01*
X0097854Y0118652D01*
X0097553Y0118733D01*
X0097254Y0118821D01*
X0096957Y0118917D01*
X0096662Y0119020D01*
X0096370Y0119130D01*
X0096081Y0119247D01*
X0095794Y0119371D01*
X0095511Y0119502D01*
X0095231Y0119640D01*
X0094955Y0119785D01*
X0094682Y0119937D01*
X0094413Y0120095D01*
X0094148Y0120260D01*
X0093887Y0120431D01*
X0093631Y0120608D01*
X0093378Y0120792D01*
X0093131Y0120982D01*
X0092888Y0121177D01*
X0092649Y0121379D01*
X0092416Y0121587D01*
X0092188Y0121800D01*
X0091966Y0122018D01*
X0091748Y0122242D01*
X0091537Y0122471D01*
X0091331Y0122706D01*
X0091130Y0122945D01*
X0090936Y0123189D01*
X0090748Y0123438D01*
X0090565Y0123691D01*
X0090389Y0123949D01*
X0090220Y0124211D01*
X0090057Y0124477D01*
X0089900Y0124747D01*
X0089750Y0125021D01*
X0089607Y0125298D01*
X0089470Y0125578D01*
X0089341Y0125862D01*
X0089218Y0126149D01*
X0089103Y0126439D01*
X0088995Y0126732D01*
X0088893Y0127027D01*
X0088799Y0127325D01*
X0088713Y0127625D01*
X0088634Y0127926D01*
X0088562Y0128230D01*
X0088497Y0128535D01*
X0088440Y0128842D01*
X0088391Y0129150D01*
X0088349Y0129460D01*
X0088315Y0129770D01*
X0088288Y0130081D01*
X0088269Y0130392D01*
X0088258Y0130704D01*
X0088254Y0131016D01*
X0088258Y0131328D01*
X0088269Y0131640D01*
X0088288Y0131951D01*
X0088315Y0132262D01*
X0088349Y0132572D01*
X0088391Y0132882D01*
X0088440Y0133190D01*
X0088497Y0133497D01*
X0088562Y0133802D01*
X0088634Y0134106D01*
X0088713Y0134407D01*
X0088799Y0134707D01*
X0088893Y0135005D01*
X0088995Y0135300D01*
X0089103Y0135593D01*
X0089218Y0135883D01*
X0089341Y0136170D01*
X0089470Y0136454D01*
X0089607Y0136734D01*
X0089750Y0137011D01*
X0089900Y0137285D01*
X0090057Y0137555D01*
X0090220Y0137821D01*
X0090389Y0138083D01*
X0090565Y0138341D01*
X0090748Y0138594D01*
X0090936Y0138843D01*
X0091130Y0139087D01*
X0091331Y0139326D01*
X0091537Y0139561D01*
X0091748Y0139790D01*
X0091966Y0140014D01*
X0092188Y0140232D01*
X0092416Y0140445D01*
X0092649Y0140653D01*
X0092888Y0140855D01*
X0093131Y0141050D01*
X0093378Y0141240D01*
X0093631Y0141424D01*
X0093887Y0141601D01*
X0094148Y0141772D01*
X0094413Y0141937D01*
X0094682Y0142095D01*
X0094955Y0142247D01*
X0095231Y0142392D01*
X0095511Y0142530D01*
X0095794Y0142661D01*
X0096081Y0142785D01*
X0096370Y0142902D01*
X0096662Y0143012D01*
X0096957Y0143115D01*
X0097254Y0143211D01*
X0097553Y0143299D01*
X0097854Y0143380D01*
X0098158Y0143454D01*
X0098462Y0143520D01*
X0098769Y0143579D01*
X0099077Y0143630D01*
X0099386Y0143673D01*
X0099696Y0143710D01*
X0100007Y0143738D01*
X0100318Y0143759D01*
X0100630Y0143772D01*
X0100942Y0143778D01*
X0101254Y0143776D01*
X0101566Y0143766D01*
X0101877Y0143749D01*
X0102188Y0143724D01*
X0102499Y0143692D01*
X0102808Y0143652D01*
X0103117Y0143604D01*
X0103424Y0143549D01*
X0103729Y0143486D01*
X0104033Y0143416D01*
X0104336Y0143339D01*
X0104636Y0143254D01*
X0104934Y0143162D01*
X0105230Y0143062D01*
X0105523Y0142956D01*
X0105814Y0142842D01*
X0106102Y0142721D01*
X0106386Y0142593D01*
X0106668Y0142458D01*
X0106946Y0142317D01*
X0107220Y0142168D01*
X0107491Y0142013D01*
X0107758Y0141852D01*
X0108021Y0141684D01*
X0108280Y0141509D01*
X0108534Y0141328D01*
X0108784Y0141142D01*
X0109029Y0140949D01*
X0109270Y0140750D01*
X0109505Y0140545D01*
X0109736Y0140335D01*
X0109961Y0140119D01*
X0110181Y0139897D01*
X0110395Y0139670D01*
X0110604Y0139439D01*
X0110807Y0139202D01*
X0111004Y0138960D01*
X0111196Y0138713D01*
X0111120Y0138657D01*
X0110930Y0138902D01*
X0110735Y0139142D01*
X0110533Y0139377D01*
X0110326Y0139607D01*
X0110113Y0139832D01*
X0109895Y0140052D01*
X0109671Y0140266D01*
X0109442Y0140475D01*
X0109209Y0140678D01*
X0108970Y0140876D01*
X0108727Y0141067D01*
X0108478Y0141253D01*
X0108226Y0141432D01*
X0107969Y0141605D01*
X0107708Y0141772D01*
X0107443Y0141933D01*
X0107174Y0142086D01*
X0106902Y0142234D01*
X0106626Y0142374D01*
X0106346Y0142508D01*
X0106064Y0142635D01*
X0105778Y0142755D01*
X0105490Y0142868D01*
X0105199Y0142974D01*
X0104905Y0143072D01*
X0104609Y0143164D01*
X0104311Y0143248D01*
X0104011Y0143325D01*
X0103709Y0143394D01*
X0103406Y0143457D01*
X0103101Y0143511D01*
X0102795Y0143559D01*
X0102487Y0143598D01*
X0102179Y0143630D01*
X0101871Y0143655D01*
X0101561Y0143672D01*
X0101252Y0143682D01*
X0100942Y0143684D01*
X0100632Y0143678D01*
X0100323Y0143665D01*
X0100014Y0143644D01*
X0099705Y0143616D01*
X0099398Y0143580D01*
X0099091Y0143537D01*
X0098785Y0143486D01*
X0098481Y0143428D01*
X0098178Y0143362D01*
X0097877Y0143289D01*
X0097578Y0143209D01*
X0097281Y0143121D01*
X0096986Y0143026D01*
X0096694Y0142924D01*
X0096404Y0142815D01*
X0096117Y0142698D01*
X0095833Y0142575D01*
X0095552Y0142445D01*
X0095274Y0142308D01*
X0095000Y0142164D01*
X0094729Y0142014D01*
X0094462Y0141857D01*
X0094199Y0141693D01*
X0093940Y0141523D01*
X0093685Y0141347D01*
X0093434Y0141165D01*
X0093189Y0140976D01*
X0092947Y0140782D01*
X0092711Y0140582D01*
X0092480Y0140376D01*
X0092253Y0140164D01*
X0092032Y0139947D01*
X0091817Y0139725D01*
X0091606Y0139498D01*
X0091402Y0139265D01*
X0091203Y0139027D01*
X0091010Y0138785D01*
X0090823Y0138538D01*
X0090642Y0138287D01*
X0090468Y0138031D01*
X0090299Y0137771D01*
X0090137Y0137507D01*
X0089982Y0137239D01*
X0089833Y0136967D01*
X0089691Y0136692D01*
X0089555Y0136413D01*
X0089427Y0136132D01*
X0089305Y0135847D01*
X0089191Y0135559D01*
X0089083Y0135268D01*
X0088983Y0134975D01*
X0088889Y0134680D01*
X0088803Y0134382D01*
X0088725Y0134083D01*
X0088654Y0133781D01*
X0088590Y0133478D01*
X0088533Y0133174D01*
X0088484Y0132868D01*
X0088443Y0132561D01*
X0088409Y0132253D01*
X0088382Y0131944D01*
X0088363Y0131635D01*
X0088352Y0131326D01*
X0088348Y0131016D01*
X0088352Y0130706D01*
X0088363Y0130397D01*
X0088382Y0130088D01*
X0088409Y0129779D01*
X0088443Y0129471D01*
X0088484Y0129164D01*
X0088533Y0128858D01*
X0088590Y0128554D01*
X0088654Y0128251D01*
X0088725Y0127949D01*
X0088803Y0127650D01*
X0088889Y0127352D01*
X0088983Y0127057D01*
X0089083Y0126764D01*
X0089191Y0126473D01*
X0089305Y0126185D01*
X0089427Y0125900D01*
X0089555Y0125619D01*
X0089691Y0125340D01*
X0089833Y0125065D01*
X0089982Y0124793D01*
X0090137Y0124525D01*
X0090299Y0124261D01*
X0090468Y0124001D01*
X0090642Y0123745D01*
X0090823Y0123494D01*
X0091010Y0123247D01*
X0091203Y0123005D01*
X0091402Y0122767D01*
X0091606Y0122534D01*
X0091817Y0122307D01*
X0092032Y0122085D01*
X0092253Y0121868D01*
X0092480Y0121656D01*
X0092711Y0121450D01*
X0092947Y0121250D01*
X0093189Y0121056D01*
X0093434Y0120867D01*
X0093685Y0120685D01*
X0093940Y0120509D01*
X0094199Y0120339D01*
X0094462Y0120175D01*
X0094729Y0120018D01*
X0095000Y0119868D01*
X0095274Y0119724D01*
X0095552Y0119587D01*
X0095833Y0119457D01*
X0096117Y0119334D01*
X0096404Y0119217D01*
X0096694Y0119108D01*
X0096986Y0119006D01*
X0097281Y0118911D01*
X0097578Y0118823D01*
X0097877Y0118743D01*
X0098178Y0118670D01*
X0098481Y0118604D01*
X0098785Y0118546D01*
X0099091Y0118495D01*
X0099398Y0118452D01*
X0099705Y0118416D01*
X0100014Y0118388D01*
X0100323Y0118367D01*
X0100632Y0118354D01*
X0100942Y0118348D01*
X0101252Y0118350D01*
X0101561Y0118360D01*
X0101871Y0118377D01*
X0102179Y0118402D01*
X0102487Y0118434D01*
X0102795Y0118473D01*
X0103101Y0118521D01*
X0103406Y0118575D01*
X0103709Y0118638D01*
X0104011Y0118707D01*
X0104311Y0118784D01*
X0104609Y0118868D01*
X0104905Y0118960D01*
X0105199Y0119058D01*
X0105490Y0119164D01*
X0105778Y0119277D01*
X0106064Y0119397D01*
X0106346Y0119524D01*
X0106626Y0119658D01*
X0106902Y0119798D01*
X0107174Y0119946D01*
X0107443Y0120099D01*
X0107708Y0120260D01*
X0107969Y0120427D01*
X0108226Y0120600D01*
X0108478Y0120779D01*
X0108727Y0120965D01*
X0108970Y0121156D01*
X0109209Y0121354D01*
X0109442Y0121557D01*
X0109671Y0121766D01*
X0109895Y0121980D01*
X0110113Y0122200D01*
X0110326Y0122425D01*
X0110533Y0122655D01*
X0110735Y0122890D01*
X0110930Y0123130D01*
X0111120Y0123375D01*
X0111045Y0123432D01*
X0110857Y0123189D01*
X0110662Y0122950D01*
X0110462Y0122717D01*
X0110257Y0122489D01*
X0110045Y0122265D01*
X0109829Y0122047D01*
X0109607Y0121834D01*
X0109380Y0121627D01*
X0109148Y0121425D01*
X0108911Y0121229D01*
X0108669Y0121039D01*
X0108423Y0120855D01*
X0108172Y0120677D01*
X0107917Y0120505D01*
X0107658Y0120340D01*
X0107395Y0120180D01*
X0107128Y0120028D01*
X0106858Y0119881D01*
X0106584Y0119742D01*
X0106307Y0119609D01*
X0106026Y0119483D01*
X0105743Y0119364D01*
X0105456Y0119252D01*
X0105167Y0119147D01*
X0104876Y0119049D01*
X0104582Y0118958D01*
X0104286Y0118875D01*
X0103989Y0118798D01*
X0103689Y0118729D01*
X0103388Y0118668D01*
X0103085Y0118613D01*
X0102781Y0118567D01*
X0102476Y0118527D01*
X0102171Y0118495D01*
X0101864Y0118471D01*
X0101557Y0118454D01*
X0101250Y0118444D01*
X0100942Y0118442D01*
X0100635Y0118448D01*
X0100328Y0118461D01*
X0100021Y0118481D01*
X0099715Y0118510D01*
X0099409Y0118545D01*
X0099105Y0118588D01*
X0098802Y0118639D01*
X0098500Y0118696D01*
X0098199Y0118762D01*
X0097900Y0118834D01*
X0097604Y0118914D01*
X0097309Y0119001D01*
X0097016Y0119095D01*
X0096726Y0119197D01*
X0096438Y0119305D01*
X0096153Y0119420D01*
X0095871Y0119543D01*
X0095592Y0119672D01*
X0095316Y0119808D01*
X0095044Y0119951D01*
X0094775Y0120100D01*
X0094510Y0120256D01*
X0094249Y0120418D01*
X0093992Y0120587D01*
X0093739Y0120762D01*
X0093491Y0120943D01*
X0093247Y0121130D01*
X0093007Y0121323D01*
X0092773Y0121521D01*
X0092543Y0121726D01*
X0092318Y0121936D01*
X0092099Y0122151D01*
X0091885Y0122372D01*
X0091676Y0122597D01*
X0091473Y0122828D01*
X0091276Y0123064D01*
X0091084Y0123305D01*
X0090899Y0123550D01*
X0090719Y0123799D01*
X0090546Y0124053D01*
X0090379Y0124311D01*
X0090218Y0124573D01*
X0090064Y0124839D01*
X0089916Y0125109D01*
X0089775Y0125382D01*
X0089640Y0125659D01*
X0089513Y0125938D01*
X0089392Y0126221D01*
X0089278Y0126507D01*
X0089172Y0126795D01*
X0089072Y0127086D01*
X0088979Y0127379D01*
X0088894Y0127675D01*
X0088816Y0127972D01*
X0088745Y0128271D01*
X0088682Y0128572D01*
X0088626Y0128874D01*
X0088577Y0129178D01*
X0088536Y0129483D01*
X0088502Y0129788D01*
X0088476Y0130094D01*
X0088457Y0130401D01*
X0088446Y0130709D01*
X0088442Y0131016D01*
X0088446Y0131323D01*
X0088457Y0131631D01*
X0088476Y0131938D01*
X0088502Y0132244D01*
X0088536Y0132549D01*
X0088577Y0132854D01*
X0088626Y0133158D01*
X0088682Y0133460D01*
X0088745Y0133761D01*
X0088816Y0134060D01*
X0088894Y0134357D01*
X0088979Y0134653D01*
X0089072Y0134946D01*
X0089172Y0135237D01*
X0089278Y0135525D01*
X0089392Y0135811D01*
X0089513Y0136094D01*
X0089640Y0136373D01*
X0089775Y0136650D01*
X0089916Y0136923D01*
X0090064Y0137193D01*
X0090218Y0137459D01*
X0090379Y0137721D01*
X0090546Y0137979D01*
X0090719Y0138233D01*
X0090899Y0138482D01*
X0091084Y0138727D01*
X0091276Y0138968D01*
X0091473Y0139204D01*
X0091676Y0139435D01*
X0091885Y0139660D01*
X0092099Y0139881D01*
X0092318Y0140096D01*
X0092543Y0140306D01*
X0092773Y0140511D01*
X0093007Y0140709D01*
X0093247Y0140902D01*
X0093491Y0141089D01*
X0093739Y0141270D01*
X0093992Y0141445D01*
X0094249Y0141614D01*
X0094510Y0141776D01*
X0094775Y0141932D01*
X0095044Y0142081D01*
X0095316Y0142224D01*
X0095592Y0142360D01*
X0095871Y0142489D01*
X0096153Y0142612D01*
X0096438Y0142727D01*
X0096726Y0142835D01*
X0097016Y0142937D01*
X0097309Y0143031D01*
X0097604Y0143118D01*
X0097900Y0143198D01*
X0098199Y0143270D01*
X0098500Y0143336D01*
X0098802Y0143393D01*
X0099105Y0143444D01*
X0099409Y0143487D01*
X0099715Y0143522D01*
X0100021Y0143551D01*
X0100328Y0143571D01*
X0100635Y0143584D01*
X0100942Y0143590D01*
X0101250Y0143588D01*
X0101557Y0143578D01*
X0101864Y0143561D01*
X0102171Y0143537D01*
X0102476Y0143505D01*
X0102781Y0143465D01*
X0103085Y0143419D01*
X0103388Y0143364D01*
X0103689Y0143303D01*
X0103989Y0143234D01*
X0104286Y0143157D01*
X0104582Y0143074D01*
X0104876Y0142983D01*
X0105167Y0142885D01*
X0105456Y0142780D01*
X0105743Y0142668D01*
X0106026Y0142549D01*
X0106307Y0142423D01*
X0106584Y0142290D01*
X0106858Y0142151D01*
X0107128Y0142004D01*
X0107395Y0141852D01*
X0107658Y0141692D01*
X0107917Y0141527D01*
X0108172Y0141355D01*
X0108423Y0141177D01*
X0108669Y0140993D01*
X0108911Y0140803D01*
X0109148Y0140607D01*
X0109380Y0140405D01*
X0109607Y0140198D01*
X0109829Y0139985D01*
X0110045Y0139767D01*
X0110257Y0139543D01*
X0110462Y0139315D01*
X0110662Y0139082D01*
X0110857Y0138843D01*
X0111045Y0138600D01*
X0110970Y0138544D01*
X0110783Y0138785D01*
X0110590Y0139022D01*
X0110391Y0139253D01*
X0110187Y0139480D01*
X0109978Y0139702D01*
X0109763Y0139918D01*
X0109542Y0140129D01*
X0109317Y0140335D01*
X0109087Y0140535D01*
X0108851Y0140730D01*
X0108612Y0140918D01*
X0108367Y0141101D01*
X0108118Y0141278D01*
X0107865Y0141448D01*
X0107608Y0141613D01*
X0107347Y0141771D01*
X0107082Y0141922D01*
X0106814Y0142067D01*
X0106542Y0142206D01*
X0106267Y0142338D01*
X0105988Y0142463D01*
X0105707Y0142581D01*
X0105423Y0142692D01*
X0105136Y0142796D01*
X0104847Y0142894D01*
X0104555Y0142984D01*
X0104262Y0143067D01*
X0103966Y0143142D01*
X0103669Y0143211D01*
X0103370Y0143272D01*
X0103069Y0143326D01*
X0102768Y0143372D01*
X0102465Y0143412D01*
X0102162Y0143443D01*
X0101857Y0143468D01*
X0101553Y0143484D01*
X0101248Y0143494D01*
X0100943Y0143496D01*
X0100638Y0143490D01*
X0100333Y0143477D01*
X0100028Y0143457D01*
X0099724Y0143429D01*
X0099421Y0143394D01*
X0099119Y0143351D01*
X0098818Y0143301D01*
X0098518Y0143244D01*
X0098220Y0143179D01*
X0097924Y0143107D01*
X0097629Y0143028D01*
X0097336Y0142941D01*
X0097046Y0142848D01*
X0096758Y0142747D01*
X0096472Y0142639D01*
X0096189Y0142525D01*
X0095909Y0142403D01*
X0095632Y0142275D01*
X0095359Y0142140D01*
X0095089Y0141999D01*
X0094822Y0141850D01*
X0094559Y0141696D01*
X0094300Y0141535D01*
X0094044Y0141367D01*
X0093793Y0141194D01*
X0093547Y0141014D01*
X0093305Y0140828D01*
X0093067Y0140637D01*
X0092834Y0140440D01*
X0092606Y0140237D01*
X0092383Y0140028D01*
X0092165Y0139815D01*
X0091953Y0139596D01*
X0091746Y0139372D01*
X0091544Y0139142D01*
X0091348Y0138908D01*
X0091158Y0138670D01*
X0090974Y0138426D01*
X0090796Y0138179D01*
X0090624Y0137927D01*
X0090458Y0137670D01*
X0090299Y0137410D01*
X0090145Y0137146D01*
X0089999Y0136879D01*
X0089859Y0136608D01*
X0089725Y0136333D01*
X0089599Y0136056D01*
X0089479Y0135775D01*
X0089366Y0135491D01*
X0089260Y0135205D01*
X0089161Y0134917D01*
X0089069Y0134626D01*
X0088985Y0134332D01*
X0088907Y0134037D01*
X0088837Y0133740D01*
X0088774Y0133442D01*
X0088718Y0133142D01*
X0088670Y0132840D01*
X0088629Y0132538D01*
X0088596Y0132235D01*
X0088570Y0131931D01*
X0088551Y0131626D01*
X0088540Y0131321D01*
X0088536Y0131016D01*
X0088540Y0130711D01*
X0088551Y0130406D01*
X0088570Y0130101D01*
X0088596Y0129797D01*
X0088629Y0129494D01*
X0088670Y0129192D01*
X0088718Y0128890D01*
X0088774Y0128590D01*
X0088837Y0128292D01*
X0088907Y0127995D01*
X0088985Y0127700D01*
X0089069Y0127406D01*
X0089161Y0127115D01*
X0089260Y0126827D01*
X0089366Y0126541D01*
X0089479Y0126257D01*
X0089599Y0125976D01*
X0089725Y0125699D01*
X0089859Y0125424D01*
X0089999Y0125153D01*
X0090145Y0124886D01*
X0090299Y0124622D01*
X0090458Y0124362D01*
X0090624Y0124105D01*
X0090796Y0123853D01*
X0090974Y0123606D01*
X0091158Y0123362D01*
X0091348Y0123124D01*
X0091544Y0122890D01*
X0091746Y0122660D01*
X0091953Y0122436D01*
X0092165Y0122217D01*
X0092383Y0122004D01*
X0092606Y0121795D01*
X0092834Y0121592D01*
X0093067Y0121395D01*
X0093305Y0121204D01*
X0093547Y0121018D01*
X0093793Y0120838D01*
X0094044Y0120665D01*
X0094300Y0120497D01*
X0094559Y0120336D01*
X0094822Y0120182D01*
X0095089Y0120033D01*
X0095359Y0119892D01*
X0095632Y0119757D01*
X0095909Y0119629D01*
X0096189Y0119507D01*
X0096472Y0119393D01*
X0096758Y0119285D01*
X0097046Y0119184D01*
X0097336Y0119091D01*
X0097629Y0119004D01*
X0097924Y0118925D01*
X0098220Y0118853D01*
X0098518Y0118788D01*
X0098818Y0118731D01*
X0099119Y0118681D01*
X0099421Y0118638D01*
X0099724Y0118603D01*
X0100028Y0118575D01*
X0100333Y0118555D01*
X0100638Y0118542D01*
X0100943Y0118536D01*
X0101248Y0118538D01*
X0101553Y0118548D01*
X0101857Y0118564D01*
X0102162Y0118589D01*
X0102465Y0118620D01*
X0102768Y0118660D01*
X0103069Y0118706D01*
X0103370Y0118760D01*
X0103669Y0118821D01*
X0103966Y0118890D01*
X0104262Y0118965D01*
X0104555Y0119048D01*
X0104847Y0119138D01*
X0105136Y0119236D01*
X0105423Y0119340D01*
X0105707Y0119451D01*
X0105988Y0119569D01*
X0106267Y0119694D01*
X0106542Y0119826D01*
X0106814Y0119965D01*
X0107082Y0120110D01*
X0107347Y0120261D01*
X0107608Y0120419D01*
X0107865Y0120584D01*
X0108118Y0120754D01*
X0108367Y0120931D01*
X0108612Y0121114D01*
X0108851Y0121302D01*
X0109087Y0121497D01*
X0109317Y0121697D01*
X0109542Y0121903D01*
X0109763Y0122114D01*
X0109978Y0122330D01*
X0110187Y0122552D01*
X0110391Y0122779D01*
X0110590Y0123010D01*
X0110783Y0123247D01*
X0110970Y0123488D01*
X0110895Y0123544D01*
X0110709Y0123305D01*
X0110518Y0123070D01*
X0110321Y0122841D01*
X0110118Y0122616D01*
X0109910Y0122395D01*
X0109696Y0122181D01*
X0109478Y0121971D01*
X0109254Y0121767D01*
X0109026Y0121568D01*
X0108792Y0121375D01*
X0108554Y0121188D01*
X0108312Y0121007D01*
X0108065Y0120831D01*
X0107814Y0120662D01*
X0107558Y0120499D01*
X0107299Y0120342D01*
X0107036Y0120192D01*
X0106770Y0120048D01*
X0106500Y0119910D01*
X0106227Y0119779D01*
X0105951Y0119655D01*
X0105671Y0119538D01*
X0105389Y0119428D01*
X0105105Y0119324D01*
X0104818Y0119228D01*
X0104528Y0119138D01*
X0104237Y0119056D01*
X0103944Y0118981D01*
X0103648Y0118913D01*
X0103352Y0118852D01*
X0103054Y0118799D01*
X0102754Y0118753D01*
X0102454Y0118714D01*
X0102153Y0118682D01*
X0101851Y0118658D01*
X0101548Y0118641D01*
X0101246Y0118632D01*
X0100943Y0118630D01*
X0100640Y0118636D01*
X0100338Y0118649D01*
X0100035Y0118669D01*
X0099734Y0118697D01*
X0099433Y0118732D01*
X0099133Y0118774D01*
X0098834Y0118824D01*
X0098537Y0118881D01*
X0098241Y0118945D01*
X0097947Y0119016D01*
X0097654Y0119095D01*
X0097364Y0119181D01*
X0097075Y0119274D01*
X0096790Y0119373D01*
X0096506Y0119480D01*
X0096226Y0119594D01*
X0095948Y0119714D01*
X0095673Y0119842D01*
X0095401Y0119976D01*
X0095133Y0120116D01*
X0094868Y0120263D01*
X0094607Y0120417D01*
X0094350Y0120577D01*
X0094097Y0120743D01*
X0093848Y0120915D01*
X0093603Y0121093D01*
X0093362Y0121278D01*
X0093127Y0121468D01*
X0092896Y0121663D01*
X0092669Y0121865D01*
X0092448Y0122071D01*
X0092232Y0122284D01*
X0092021Y0122501D01*
X0091816Y0122723D01*
X0091616Y0122951D01*
X0091421Y0123183D01*
X0091233Y0123420D01*
X0091050Y0123662D01*
X0090873Y0123907D01*
X0090702Y0124158D01*
X0090538Y0124412D01*
X0090379Y0124670D01*
X0090227Y0124932D01*
X0090082Y0125197D01*
X0089943Y0125466D01*
X0089810Y0125739D01*
X0089685Y0126014D01*
X0089566Y0126293D01*
X0089454Y0126574D01*
X0089349Y0126858D01*
X0089250Y0127145D01*
X0089159Y0127434D01*
X0089075Y0127725D01*
X0088998Y0128018D01*
X0088929Y0128312D01*
X0088866Y0128609D01*
X0088811Y0128906D01*
X0088763Y0129205D01*
X0088722Y0129505D01*
X0088689Y0129807D01*
X0088663Y0130108D01*
X0088645Y0130411D01*
X0088634Y0130713D01*
X0088630Y0131016D01*
X0088634Y0131319D01*
X0088645Y0131621D01*
X0088663Y0131924D01*
X0088689Y0132225D01*
X0088722Y0132527D01*
X0088763Y0132827D01*
X0088811Y0133126D01*
X0088866Y0133423D01*
X0088929Y0133720D01*
X0088998Y0134014D01*
X0089075Y0134307D01*
X0089159Y0134598D01*
X0089250Y0134887D01*
X0089349Y0135174D01*
X0089454Y0135458D01*
X0089566Y0135739D01*
X0089685Y0136018D01*
X0089810Y0136293D01*
X0089943Y0136566D01*
X0090082Y0136835D01*
X0090227Y0137100D01*
X0090379Y0137362D01*
X0090538Y0137620D01*
X0090702Y0137874D01*
X0090873Y0138125D01*
X0091050Y0138370D01*
X0091233Y0138612D01*
X0091421Y0138849D01*
X0091616Y0139081D01*
X0091816Y0139309D01*
X0092021Y0139531D01*
X0092232Y0139748D01*
X0092448Y0139961D01*
X0092669Y0140167D01*
X0092896Y0140369D01*
X0093127Y0140564D01*
X0093362Y0140754D01*
X0093603Y0140939D01*
X0093848Y0141117D01*
X0094097Y0141289D01*
X0094350Y0141455D01*
X0094607Y0141615D01*
X0094868Y0141769D01*
X0095133Y0141916D01*
X0095401Y0142056D01*
X0095673Y0142190D01*
X0095948Y0142318D01*
X0096226Y0142438D01*
X0096506Y0142552D01*
X0096790Y0142659D01*
X0097075Y0142758D01*
X0097364Y0142851D01*
X0097654Y0142937D01*
X0097947Y0143016D01*
X0098241Y0143087D01*
X0098537Y0143151D01*
X0098834Y0143208D01*
X0099133Y0143258D01*
X0099433Y0143300D01*
X0099734Y0143335D01*
X0100035Y0143363D01*
X0100338Y0143383D01*
X0100640Y0143396D01*
X0100943Y0143402D01*
X0101246Y0143400D01*
X0101548Y0143391D01*
X0101851Y0143374D01*
X0102153Y0143350D01*
X0102454Y0143318D01*
X0102754Y0143279D01*
X0103054Y0143233D01*
X0103352Y0143180D01*
X0103648Y0143119D01*
X0103944Y0143051D01*
X0104237Y0142976D01*
X0104528Y0142894D01*
X0104818Y0142804D01*
X0105105Y0142708D01*
X0105389Y0142604D01*
X0105671Y0142494D01*
X0105951Y0142377D01*
X0106227Y0142253D01*
X0106500Y0142122D01*
X0106770Y0141984D01*
X0107036Y0141840D01*
X0107299Y0141690D01*
X0107558Y0141533D01*
X0107814Y0141370D01*
X0108065Y0141201D01*
X0108312Y0141025D01*
X0108554Y0140844D01*
X0108792Y0140657D01*
X0109026Y0140464D01*
X0109254Y0140265D01*
X0109478Y0140061D01*
X0109696Y0139851D01*
X0109910Y0139637D01*
X0110118Y0139416D01*
X0110321Y0139191D01*
X0110518Y0138962D01*
X0110709Y0138727D01*
X0110895Y0138488D01*
X0110820Y0138431D01*
X0110635Y0138669D01*
X0110445Y0138901D01*
X0110250Y0139130D01*
X0110049Y0139353D01*
X0109842Y0139571D01*
X0109630Y0139785D01*
X0109413Y0139993D01*
X0109191Y0140195D01*
X0108964Y0140392D01*
X0108733Y0140584D01*
X0108497Y0140770D01*
X0108256Y0140950D01*
X0108011Y0141124D01*
X0107762Y0141292D01*
X0107508Y0141454D01*
X0107251Y0141609D01*
X0106990Y0141758D01*
X0106726Y0141901D01*
X0106458Y0142038D01*
X0106187Y0142167D01*
X0105913Y0142290D01*
X0105636Y0142407D01*
X0105356Y0142516D01*
X0105073Y0142619D01*
X0104789Y0142715D01*
X0104501Y0142803D01*
X0104212Y0142885D01*
X0103921Y0142960D01*
X0103628Y0143027D01*
X0103334Y0143088D01*
X0103038Y0143141D01*
X0102741Y0143186D01*
X0102443Y0143225D01*
X0102144Y0143256D01*
X0101844Y0143280D01*
X0101544Y0143297D01*
X0101244Y0143306D01*
X0100943Y0143308D01*
X0100643Y0143302D01*
X0100342Y0143290D01*
X0100043Y0143269D01*
X0099743Y0143242D01*
X0099445Y0143207D01*
X0099147Y0143165D01*
X0098851Y0143116D01*
X0098556Y0143059D01*
X0098262Y0142995D01*
X0097970Y0142925D01*
X0097680Y0142847D01*
X0097391Y0142761D01*
X0097105Y0142669D01*
X0096821Y0142570D01*
X0096540Y0142464D01*
X0096262Y0142351D01*
X0095986Y0142232D01*
X0095713Y0142105D01*
X0095444Y0141972D01*
X0095178Y0141833D01*
X0094915Y0141687D01*
X0094656Y0141535D01*
X0094400Y0141376D01*
X0094149Y0141211D01*
X0093902Y0141040D01*
X0093659Y0140863D01*
X0093420Y0140680D01*
X0093186Y0140492D01*
X0092957Y0140298D01*
X0092733Y0140098D01*
X0092513Y0139893D01*
X0092299Y0139682D01*
X0092089Y0139466D01*
X0091885Y0139246D01*
X0091687Y0139020D01*
X0091494Y0138789D01*
X0091307Y0138554D01*
X0091125Y0138315D01*
X0090950Y0138071D01*
X0090780Y0137822D01*
X0090617Y0137570D01*
X0090460Y0137314D01*
X0090309Y0137054D01*
X0090165Y0136790D01*
X0090027Y0136523D01*
X0089895Y0136253D01*
X0089771Y0135980D01*
X0089653Y0135703D01*
X0089542Y0135424D01*
X0089437Y0135142D01*
X0089340Y0134858D01*
X0089249Y0134571D01*
X0089166Y0134282D01*
X0089090Y0133992D01*
X0089020Y0133699D01*
X0088958Y0133405D01*
X0088904Y0133110D01*
X0088856Y0132813D01*
X0088816Y0132515D01*
X0088783Y0132216D01*
X0088757Y0131917D01*
X0088739Y0131617D01*
X0088728Y0131317D01*
X0088724Y0131016D01*
X0088728Y0130715D01*
X0088739Y0130415D01*
X0088757Y0130115D01*
X0088783Y0129816D01*
X0088816Y0129517D01*
X0088856Y0129219D01*
X0088904Y0128922D01*
X0088958Y0128627D01*
X0089020Y0128333D01*
X0089090Y0128040D01*
X0089166Y0127750D01*
X0089249Y0127461D01*
X0089340Y0127174D01*
X0089437Y0126890D01*
X0089542Y0126608D01*
X0089653Y0126329D01*
X0089771Y0126052D01*
X0089895Y0125779D01*
X0090027Y0125509D01*
X0090165Y0125242D01*
X0090309Y0124978D01*
X0090460Y0124718D01*
X0090617Y0124462D01*
X0090780Y0124210D01*
X0090950Y0123961D01*
X0091125Y0123717D01*
X0091307Y0123478D01*
X0091494Y0123243D01*
X0091687Y0123012D01*
X0091885Y0122786D01*
X0092089Y0122566D01*
X0092299Y0122350D01*
X0092513Y0122139D01*
X0092733Y0121934D01*
X0092957Y0121734D01*
X0093186Y0121540D01*
X0093420Y0121352D01*
X0093659Y0121169D01*
X0093902Y0120992D01*
X0094149Y0120821D01*
X0094400Y0120656D01*
X0094656Y0120497D01*
X0094915Y0120345D01*
X0095178Y0120199D01*
X0095444Y0120060D01*
X0095713Y0119927D01*
X0095986Y0119800D01*
X0096262Y0119681D01*
X0096540Y0119568D01*
X0096821Y0119462D01*
X0097105Y0119363D01*
X0097391Y0119271D01*
X0097680Y0119185D01*
X0097970Y0119107D01*
X0098262Y0119037D01*
X0098556Y0118973D01*
X0098851Y0118916D01*
X0099147Y0118867D01*
X0099445Y0118825D01*
X0099743Y0118790D01*
X0100043Y0118763D01*
X0100342Y0118742D01*
X0100643Y0118730D01*
X0100943Y0118724D01*
X0101244Y0118726D01*
X0101544Y0118735D01*
X0101844Y0118752D01*
X0102144Y0118776D01*
X0102443Y0118807D01*
X0102741Y0118846D01*
X0103038Y0118891D01*
X0103334Y0118944D01*
X0103628Y0119005D01*
X0103921Y0119072D01*
X0104212Y0119147D01*
X0104501Y0119229D01*
X0104789Y0119317D01*
X0105073Y0119413D01*
X0105356Y0119516D01*
X0105636Y0119625D01*
X0105913Y0119742D01*
X0106187Y0119865D01*
X0106458Y0119994D01*
X0106726Y0120131D01*
X0106990Y0120274D01*
X0107251Y0120423D01*
X0107508Y0120578D01*
X0107762Y0120740D01*
X0108011Y0120908D01*
X0108256Y0121082D01*
X0108497Y0121262D01*
X0108733Y0121448D01*
X0108964Y0121640D01*
X0109191Y0121837D01*
X0109413Y0122039D01*
X0109630Y0122247D01*
X0109842Y0122461D01*
X0110049Y0122679D01*
X0110250Y0122902D01*
X0110445Y0123131D01*
X0110635Y0123363D01*
X0110820Y0123601D01*
X0110744Y0123657D01*
X0110562Y0123422D01*
X0110373Y0123191D01*
X0110179Y0122964D01*
X0109979Y0122742D01*
X0109774Y0122526D01*
X0109564Y0122314D01*
X0109349Y0122108D01*
X0109129Y0121907D01*
X0108903Y0121711D01*
X0108674Y0121521D01*
X0108439Y0121337D01*
X0108200Y0121158D01*
X0107957Y0120985D01*
X0107710Y0120819D01*
X0107458Y0120658D01*
X0107203Y0120504D01*
X0106944Y0120356D01*
X0106682Y0120214D01*
X0106416Y0120079D01*
X0106147Y0119950D01*
X0105875Y0119828D01*
X0105600Y0119712D01*
X0105322Y0119603D01*
X0105042Y0119502D01*
X0104759Y0119407D01*
X0104474Y0119319D01*
X0104187Y0119238D01*
X0103899Y0119163D01*
X0103608Y0119097D01*
X0103316Y0119037D01*
X0103022Y0118984D01*
X0102727Y0118939D01*
X0102432Y0118900D01*
X0102135Y0118869D01*
X0101838Y0118846D01*
X0101540Y0118829D01*
X0101242Y0118820D01*
X0100944Y0118818D01*
X0100645Y0118824D01*
X0100347Y0118836D01*
X0100050Y0118856D01*
X0099753Y0118884D01*
X0099457Y0118918D01*
X0099161Y0118960D01*
X0098867Y0119009D01*
X0098574Y0119065D01*
X0098283Y0119128D01*
X0097993Y0119199D01*
X0097705Y0119276D01*
X0097419Y0119360D01*
X0097135Y0119452D01*
X0096853Y0119550D01*
X0096574Y0119655D01*
X0096298Y0119767D01*
X0096024Y0119886D01*
X0095754Y0120011D01*
X0095486Y0120143D01*
X0095222Y0120282D01*
X0094961Y0120427D01*
X0094704Y0120578D01*
X0094451Y0120735D01*
X0094202Y0120899D01*
X0093956Y0121069D01*
X0093715Y0121244D01*
X0093478Y0121426D01*
X0093246Y0121613D01*
X0093019Y0121805D01*
X0092796Y0122004D01*
X0092578Y0122207D01*
X0092365Y0122416D01*
X0092157Y0122630D01*
X0091955Y0122850D01*
X0091758Y0123073D01*
X0091567Y0123302D01*
X0091381Y0123536D01*
X0091201Y0123773D01*
X0091027Y0124015D01*
X0090859Y0124262D01*
X0090697Y0124512D01*
X0090541Y0124766D01*
X0090391Y0125024D01*
X0090248Y0125286D01*
X0090111Y0125551D01*
X0089980Y0125819D01*
X0089857Y0126090D01*
X0089740Y0126365D01*
X0089629Y0126642D01*
X0089526Y0126922D01*
X0089429Y0127204D01*
X0089339Y0127488D01*
X0089257Y0127775D01*
X0089181Y0128063D01*
X0089112Y0128353D01*
X0089051Y0128645D01*
X0088996Y0128938D01*
X0088949Y0129233D01*
X0088909Y0129528D01*
X0088876Y0129825D01*
X0088851Y0130122D01*
X0088833Y0130420D01*
X0088822Y0130718D01*
X0088818Y0131016D01*
X0088822Y0131314D01*
X0088833Y0131612D01*
X0088851Y0131910D01*
X0088876Y0132207D01*
X0088909Y0132504D01*
X0088949Y0132799D01*
X0088996Y0133094D01*
X0089051Y0133387D01*
X0089112Y0133679D01*
X0089181Y0133969D01*
X0089257Y0134257D01*
X0089339Y0134544D01*
X0089429Y0134828D01*
X0089526Y0135110D01*
X0089629Y0135390D01*
X0089740Y0135667D01*
X0089857Y0135942D01*
X0089980Y0136213D01*
X0090111Y0136481D01*
X0090248Y0136746D01*
X0090391Y0137008D01*
X0090541Y0137266D01*
X0090697Y0137520D01*
X0090859Y0137770D01*
X0091027Y0138017D01*
X0091201Y0138259D01*
X0091381Y0138496D01*
X0091567Y0138730D01*
X0091758Y0138959D01*
X0091955Y0139182D01*
X0092157Y0139402D01*
X0092365Y0139616D01*
X0092578Y0139825D01*
X0092796Y0140028D01*
X0093019Y0140227D01*
X0093246Y0140419D01*
X0093478Y0140606D01*
X0093715Y0140788D01*
X0093956Y0140963D01*
X0094202Y0141133D01*
X0094451Y0141297D01*
X0094704Y0141454D01*
X0094961Y0141605D01*
X0095222Y0141750D01*
X0095486Y0141889D01*
X0095754Y0142021D01*
X0096024Y0142146D01*
X0096298Y0142265D01*
X0096574Y0142377D01*
X0096853Y0142482D01*
X0097135Y0142580D01*
X0097419Y0142672D01*
X0097705Y0142756D01*
X0097993Y0142833D01*
X0098283Y0142904D01*
X0098574Y0142967D01*
X0098867Y0143023D01*
X0099161Y0143072D01*
X0099457Y0143114D01*
X0099753Y0143148D01*
X0100050Y0143176D01*
X0100347Y0143196D01*
X0100645Y0143208D01*
X0100944Y0143214D01*
X0101242Y0143212D01*
X0101540Y0143203D01*
X0101838Y0143186D01*
X0102135Y0143163D01*
X0102432Y0143132D01*
X0102727Y0143093D01*
X0103022Y0143048D01*
X0103316Y0142995D01*
X0103608Y0142935D01*
X0103899Y0142869D01*
X0104187Y0142794D01*
X0104474Y0142713D01*
X0104759Y0142625D01*
X0105042Y0142530D01*
X0105322Y0142429D01*
X0105600Y0142320D01*
X0105875Y0142204D01*
X0106147Y0142082D01*
X0106416Y0141953D01*
X0106682Y0141818D01*
X0106944Y0141676D01*
X0107203Y0141528D01*
X0107458Y0141374D01*
X0107710Y0141213D01*
X0107957Y0141047D01*
X0108200Y0140874D01*
X0108439Y0140695D01*
X0108674Y0140511D01*
X0108903Y0140321D01*
X0109129Y0140125D01*
X0109349Y0139924D01*
X0109564Y0139718D01*
X0109774Y0139506D01*
X0109979Y0139290D01*
X0110179Y0139068D01*
X0110373Y0138841D01*
X0110562Y0138610D01*
X0110744Y0138375D01*
X0110669Y0138318D01*
X0110488Y0138552D01*
X0110301Y0138781D01*
X0110108Y0139006D01*
X0109910Y0139226D01*
X0109707Y0139441D01*
X0109498Y0139651D01*
X0109284Y0139856D01*
X0109066Y0140055D01*
X0108842Y0140249D01*
X0108614Y0140438D01*
X0108382Y0140621D01*
X0108145Y0140798D01*
X0107903Y0140969D01*
X0107658Y0141135D01*
X0107409Y0141294D01*
X0107155Y0141447D01*
X0106899Y0141594D01*
X0106638Y0141735D01*
X0106374Y0141869D01*
X0106107Y0141997D01*
X0105837Y0142118D01*
X0105565Y0142233D01*
X0105289Y0142341D01*
X0105011Y0142442D01*
X0104730Y0142536D01*
X0104448Y0142623D01*
X0104163Y0142704D01*
X0103876Y0142777D01*
X0103588Y0142844D01*
X0103298Y0142903D01*
X0103006Y0142955D01*
X0102714Y0143000D01*
X0102420Y0143038D01*
X0102126Y0143069D01*
X0101831Y0143093D01*
X0101536Y0143109D01*
X0101240Y0143118D01*
X0100944Y0143120D01*
X0100648Y0143114D01*
X0100352Y0143102D01*
X0100057Y0143082D01*
X0099762Y0143055D01*
X0099468Y0143021D01*
X0099175Y0142979D01*
X0098883Y0142931D01*
X0098593Y0142875D01*
X0098304Y0142812D01*
X0098016Y0142742D01*
X0097730Y0142665D01*
X0097446Y0142582D01*
X0097165Y0142491D01*
X0096885Y0142393D01*
X0096608Y0142289D01*
X0096334Y0142178D01*
X0096063Y0142060D01*
X0095794Y0141936D01*
X0095529Y0141805D01*
X0095267Y0141667D01*
X0095008Y0141524D01*
X0094753Y0141374D01*
X0094501Y0141217D01*
X0094254Y0141055D01*
X0094011Y0140887D01*
X0093771Y0140712D01*
X0093536Y0140532D01*
X0093306Y0140347D01*
X0093080Y0140155D01*
X0092859Y0139959D01*
X0092643Y0139757D01*
X0092432Y0139549D01*
X0092226Y0139337D01*
X0092025Y0139119D01*
X0091829Y0138897D01*
X0091639Y0138670D01*
X0091455Y0138439D01*
X0091277Y0138203D01*
X0091104Y0137963D01*
X0090937Y0137718D01*
X0090776Y0137470D01*
X0090621Y0137217D01*
X0090473Y0136961D01*
X0090331Y0136702D01*
X0090195Y0136439D01*
X0090065Y0136173D01*
X0089943Y0135904D01*
X0089826Y0135631D01*
X0089717Y0135356D01*
X0089614Y0135079D01*
X0089518Y0134799D01*
X0089429Y0134517D01*
X0089347Y0134232D01*
X0089272Y0133946D01*
X0089204Y0133658D01*
X0089143Y0133369D01*
X0089089Y0133078D01*
X0089042Y0132785D01*
X0089002Y0132492D01*
X0088970Y0132198D01*
X0088945Y0131903D01*
X0088926Y0131608D01*
X0088916Y0131312D01*
X0088912Y0131016D01*
X0088916Y0130720D01*
X0088926Y0130424D01*
X0088945Y0130129D01*
X0088970Y0129834D01*
X0089002Y0129540D01*
X0089042Y0129247D01*
X0089089Y0128954D01*
X0089143Y0128663D01*
X0089204Y0128374D01*
X0089272Y0128086D01*
X0089347Y0127800D01*
X0089429Y0127515D01*
X0089518Y0127233D01*
X0089614Y0126953D01*
X0089717Y0126676D01*
X0089826Y0126401D01*
X0089943Y0126128D01*
X0090065Y0125859D01*
X0090195Y0125593D01*
X0090331Y0125330D01*
X0090473Y0125071D01*
X0090621Y0124815D01*
X0090776Y0124562D01*
X0090937Y0124314D01*
X0091104Y0124069D01*
X0091277Y0123829D01*
X0091455Y0123593D01*
X0091639Y0123362D01*
X0091829Y0123135D01*
X0092025Y0122913D01*
X0092226Y0122695D01*
X0092432Y0122483D01*
X0092643Y0122275D01*
X0092859Y0122073D01*
X0093080Y0121877D01*
X0093306Y0121685D01*
X0093536Y0121500D01*
X0093771Y0121320D01*
X0094011Y0121145D01*
X0094254Y0120977D01*
X0094501Y0120815D01*
X0094753Y0120658D01*
X0095008Y0120508D01*
X0095267Y0120365D01*
X0095529Y0120227D01*
X0095794Y0120096D01*
X0096063Y0119972D01*
X0096334Y0119854D01*
X0096608Y0119743D01*
X0096885Y0119639D01*
X0097165Y0119541D01*
X0097446Y0119450D01*
X0097730Y0119367D01*
X0098016Y0119290D01*
X0098304Y0119220D01*
X0098593Y0119157D01*
X0098883Y0119101D01*
X0099175Y0119053D01*
X0099468Y0119011D01*
X0099762Y0118977D01*
X0100057Y0118950D01*
X0100352Y0118930D01*
X0100648Y0118918D01*
X0100944Y0118912D01*
X0101240Y0118914D01*
X0101536Y0118923D01*
X0101831Y0118939D01*
X0102126Y0118963D01*
X0102420Y0118994D01*
X0102714Y0119032D01*
X0103006Y0119077D01*
X0103298Y0119129D01*
X0103588Y0119188D01*
X0103876Y0119255D01*
X0104163Y0119328D01*
X0104448Y0119409D01*
X0104730Y0119496D01*
X0105011Y0119590D01*
X0105289Y0119691D01*
X0105565Y0119799D01*
X0105837Y0119914D01*
X0106107Y0120035D01*
X0106374Y0120163D01*
X0106638Y0120297D01*
X0106899Y0120438D01*
X0107155Y0120585D01*
X0107409Y0120738D01*
X0107658Y0120897D01*
X0107903Y0121063D01*
X0108145Y0121234D01*
X0108382Y0121411D01*
X0108614Y0121594D01*
X0108842Y0121783D01*
X0109066Y0121977D01*
X0109284Y0122176D01*
X0109498Y0122381D01*
X0109707Y0122591D01*
X0109910Y0122806D01*
X0110108Y0123026D01*
X0110301Y0123251D01*
X0110488Y0123480D01*
X0110669Y0123714D01*
D14*
X0119716Y0106016D03*
X0119716Y0086016D03*
X0119716Y0066016D03*
X0082316Y0066016D03*
X0082316Y0086016D03*
X0082316Y0106016D03*
X0082316Y0151016D03*
X0119716Y0151016D03*
M02*
