%
M48
M72
T01C0.03200
T02C0.04000
%
T01
X76016Y36016
X86016Y36016
X76016Y66016
X76016Y86016
X76016Y106016
X96016Y131016
X106016Y131016
X126016Y151016
X126016Y106016
X126016Y86016
X126016Y66016
X76016Y151016
T02
X16016Y16016
X26016Y16016
X36016Y16016
X46016Y16016
X36016Y51016
X26016Y51016
X16016Y51016
X21016Y111016
X51016Y111016
X21016Y156016
X21016Y166016
X21016Y176016
X21016Y186016
X21016Y196016
X21016Y206016
X21016Y216016
X21016Y226016
X26016Y241016
X16016Y241016
X46016Y236016
X56016Y236016
X66016Y236016
X76016Y236016
X86016Y236016
X96016Y236016
X106016Y236016
X126016Y236016
X136016Y236016
X146016Y236016
X156016Y236016
X166016Y236016
X176016Y236016
X186016Y236016
X211016Y226016
X211016Y216016
X211016Y206016
X211016Y196016
X211016Y186016
X211016Y176016
X171016Y156016
X161016Y156016
X121016Y41016
X111016Y41016
M30
